<?xml version="1.0" encoding="utf-8"?>
<!-- Generator: Adobe Illustrator 22.0.0, SVG Export Plug-In . SVG Version: 6.00 Build 0)  -->
<svg version="1.1" id="Layer_1" xmlns="http://www.w3.org/2000/svg" xmlns:xlink="http://www.w3.org/1999/xlink" x="0px" y="0px"
	 viewBox="0 0 87.4 83.3" style="enable-background:new 0 0 87.4 83.3;" xml:space="preserve">
<style type="text/css">
	.st0{fill:#FFFFFF;}
</style>
<path class="st0" d="M87.4,35.5C87.4,15.9,67.8,0,43.7,0C19.6,0,0,15.9,0,35.5c0,17.5,15.5,32.2,36.5,35c1.4,0.3,3.4,0.9,3.8,2.2
	c0.4,1.1,0.3,2.8,0.1,4c0,0-0.5,3.1-0.6,3.7c-0.2,1.1-0.9,4.3,3.8,2.4c4.7-2,25.2-14.8,34.3-25.4h0C84.3,50.3,87.4,43.3,87.4,35.5z
	 M28.3,45.9c0,0.5-0.4,0.9-0.8,0.9H15.2h0c-0.2,0-0.4-0.1-0.6-0.2c0,0,0,0,0,0c0,0,0,0,0,0c-0.1-0.2-0.2-0.4-0.2-0.6v0v-19
	c0-0.5,0.4-0.9,0.9-0.9h3.1c0.5,0,0.9,0.4,0.9,0.9V42h8.3c0.5,0,0.8,0.4,0.8,0.9V45.9z M35.7,45.9c0,0.5-0.4,0.8-0.9,0.8h-3.1
	c-0.5,0-0.9-0.4-0.9-0.8v-19c0-0.5,0.4-0.8,0.9-0.8h3.1c0.5,0,0.9,0.4,0.9,0.8V45.9z M56.8,45.9c0,0.5-0.4,0.8-0.9,0.8h-3.1
	c-0.1,0-0.1,0-0.2,0c0,0,0,0,0,0c0,0,0,0-0.1,0c0,0,0,0,0,0c0,0,0,0,0,0c0,0,0,0,0,0c0,0,0,0,0,0c0,0,0,0-0.1,0c0,0,0,0,0,0
	c-0.1-0.1-0.2-0.1-0.2-0.2l-8.7-11.8v11.3c0,0.5-0.4,0.8-0.9,0.8h-3.1c-0.5,0-0.9-0.4-0.9-0.8v-19c0-0.5,0.4-0.8,0.9-0.8h3.1
	c0,0,0,0,0,0c0,0,0,0,0,0c0,0,0,0,0,0c0,0,0,0,0,0c0,0,0,0,0,0c0,0,0,0,0,0c0,0,0,0,0.1,0c0,0,0,0,0,0c0,0,0,0,0,0c0,0,0,0,0,0
	c0,0,0,0,0,0c0,0,0,0,0,0c0,0,0,0,0,0c0,0,0,0,0,0c0,0,0,0,0,0c0,0,0,0,0,0c0,0,0,0,0.1,0.1c0,0,0,0,0,0c0,0,0,0.1,0.1,0.1L52,38.2
	V26.9c0-0.5,0.4-0.8,0.9-0.8h3.1c0.5,0,0.9,0.4,0.9,0.8V45.9z M73.7,29.9c0,0.5-0.4,0.9-0.8,0.9h-8.3V34h8.3c0.5,0,0.8,0.4,0.8,0.9
	v3.1c0,0.5-0.4,0.9-0.8,0.9h-8.3V42h8.3c0.5,0,0.8,0.4,0.8,0.9v3.1c0,0.5-0.4,0.9-0.8,0.9H60.6h0c-0.2,0-0.4-0.1-0.6-0.2
	c0,0,0,0,0,0c0,0,0,0,0,0c-0.1-0.2-0.2-0.4-0.2-0.6v0v-19v0c0-0.2,0.1-0.4,0.2-0.6c0,0,0,0,0,0c0,0,0,0,0,0c0.2-0.1,0.4-0.2,0.6-0.2
	h0h12.2c0.5,0,0.8,0.4,0.8,0.9V29.9z"/>
</svg>
