<?xml version="1.0" encoding="UTF-8" standalone="no"?><!DOCTYPE svg PUBLIC "-//W3C//DTD SVG 1.1//EN" "http://www.w3.org/Graphics/SVG/1.1/DTD/svg11.dtd"><svg width="100%" height="100%" viewBox="0 0 99 30" version="1.1" xmlns="http://www.w3.org/2000/svg" xmlns:xlink="http://www.w3.org/1999/xlink" xml:space="preserve" xmlns:serif="http://www.serif.com/" style="fill-rule:evenodd;clip-rule:evenodd;stroke-linejoin:round;stroke-miterlimit:1.41421;"><g id="logo_white"><g><circle cx="13.993" cy="15" r="13.993" style="fill:#bb2b1b;"/><g><path d="M8.886,21.919c-0.7,-0.336 -1.466,-0.91 -2.001,-1.59c-0.565,-0.719 -0.881,-1.54 -0.936,-1.687c-0.324,-0.864 -0.522,-1.786 -0.54,-2.711c-0.008,-0.416 0.017,-0.835 0.104,-1.24l0.007,-0.001c0.287,-0.053 0.573,-0.114 0.857,-0.181c1.121,-0.263 2.229,-0.596 3.326,-0.956c0.795,-0.261 1.582,-0.539 2.341,-0.882c0.936,-0.423 1.845,-0.921 2.595,-1.586c0.01,-0.009 0.02,-0.018 0.03,-0.027c0,0 0.025,0.07 0.043,0.121c0.499,1.388 1.352,2.62 2.358,3.703c0.841,0.906 1.905,1.625 3.093,1.968c0.506,0.146 1.032,0.239 1.548,0.212c0.007,0.173 0.001,0.346 -0.007,0.519c-0.051,1.118 -0.424,2.186 -0.758,2.932c-0.435,0.527 -1.088,1.215 -2.471,1.777c-1.292,0.526 -2.964,0.751 -3.829,0.801c-1.338,0.078 -3.67,-0.169 -5.76,-1.172Z" style="fill:#fff;"/><path d="M10.142,19.77c0,0 0.374,0.797 1.321,1.085c0.786,0.239 1.459,0.099 1.844,-0.126c0,0 0.184,-1.33 0.796,-1.666c0.374,-0.205 0.71,0.017 0.712,0.329c0.003,0.307 -0.104,0.598 -0.44,0.968c-0.356,0.392 -1.39,0.844 -2.229,0.816c-1.056,-0.034 -1.597,-0.569 -1.785,-0.764c-0.197,-0.206 -0.191,-0.433 -0.219,-0.642Z" style="fill:#bb2b1b;"/><path d="M14.378,17.115c0,0 0.286,-0.958 1.43,-1.413c0,0 -0.494,0.764 0.145,2.033c0,0 0.103,-0.173 0.191,-0.116c0.088,0.057 0.072,0.418 0.072,0.418c0,0 0.147,0.073 0.372,-0.014c0.225,-0.087 0.559,-0.347 0.549,-1.037c-0.01,-0.691 -0.127,-0.935 -0.127,-0.935c0,0 -0.013,0.054 -0.047,0.065c-0.034,0.012 -0.162,-0.103 -0.094,-0.368c0,0 -0.09,-0.171 -0.129,-0.206c0,0 0.602,0.104 1.015,0.655c0.413,0.552 0.456,1.641 -0.362,2.301c0,0 1.02,-0.498 0.831,-2.036c0,0 0.203,0.15 0.397,0.473c0,0 -0.222,-0.691 -0.813,-1.181c-0.591,-0.49 -1.4,-0.563 -2.166,-0.267c-0.765,0.296 -1.092,0.853 -1.264,1.628Z" style="fill:#16161b;"/><path d="M7.644,17.761c0,0 -0.232,-0.232 -0.316,-0.466c-0.084,-0.235 -0.142,-0.719 -0.052,-0.998c0.091,-0.28 0.254,-0.796 1.11,-0.879c0,0 -0.708,0.693 -0.132,2.125c0,0 0.087,-0.121 0.143,-0.065c0.057,0.055 -0.031,0.295 -0.031,0.295c0,0 0.214,0.2 0.511,0.085c0.297,-0.115 0.466,-0.551 0.505,-0.942c0.039,-0.391 0.038,-0.819 -0.004,-0.954c0,0 -0.092,0.065 -0.122,0.015c-0.03,-0.049 0.057,-0.119 0.057,-0.119c0,0 0.518,0.353 0.799,0.879c0,0 -0.277,-0.665 -0.685,-1.073c-0.408,-0.408 -1.071,-0.583 -1.562,-0.395c-0.491,0.187 -0.888,0.643 -0.984,1.181c0,0 0.143,-0.38 0.316,-0.551c0,0 -0.166,0.487 -0.088,0.909c0.066,0.352 0.16,0.622 0.535,0.953Z" style="fill:#16161b;"/><path d="M14.823,9.979c0,0 0.56,0.866 2.3,1.192c1.739,0.326 2.791,-0.011 2.791,-0.011c0,0 1.325,-2.675 1.887,-3.315c0,0 -0.991,0.385 -1.591,-0.074c-0.601,-0.459 -1.421,-1.291 -1.857,-3.585c0,0 -0.596,0.785 -1.472,1.471c-0.876,0.686 -1.717,1.266 -2.778,0.871c0,0 0.54,2.028 0.72,3.451Z" style="fill:#fff;"/><path d="M20.851,9.92c2.552,2.457 3.079,7.49 1.364,10.237c0,0 -0.579,0.664 -1.366,1.278c0,0 1.066,-2.091 1.125,-3.892c0.053,-1.62 -0.763,-4.025 -0.763,-4.025c0,0 0.566,2.278 0.516,3.276c0,0 -2.313,0.203 -4.425,-2.054c-2.113,-2.256 -2.504,-4.195 -2.504,-4.195c0,0 -1.021,1.344 -4.574,2.553c-3.554,1.208 -5.11,1.388 -5.11,1.388l0.159,0.062c0,0 -0.3,1.198 0.063,2.881c0.174,0.806 0.526,1.888 1.182,2.822l-1.11,0.821c0.053,-0.987 -0.061,-1.801 -0.172,-2.356c-0.369,-1.851 -0.397,-2.501 -0.438,-3.012c-0.119,-1.5 0.153,-3.356 1.76,-5.106c1.822,-1.984 4.777,-2.804 7.588,-2.8c0.161,0.694 0.3,1.393 0.397,2.099c0.008,0.059 0.016,0.118 0.03,0.174l0.027,0.054c0.091,0.14 0.215,0.258 0.342,0.368c0.516,0.448 1.174,0.721 1.845,0.879c0.962,0.227 1.993,0.299 2.965,0.101c0.108,-0.022 0.219,-0.033 0.306,-0.089c0.055,-0.035 0.06,-0.054 0.095,-0.106l0.004,-0.008c0.226,-0.453 0.455,-0.904 0.694,-1.35Z" style="fill:#16161b;"/></g></g><g><path d="M39.244,16.015l0.604,0.831c0,0 0.485,-0.203 0.934,-0.229c0.723,-0.042 3.586,0.034 3.586,0.034l0.415,-0.677l-5.539,0.041Z" style="fill:#fff;"/><path d="M98.106,8.464l-0.604,-0.831c0,0 -0.486,0.203 -0.934,0.229c-0.723,0.042 -3.586,-0.035 -3.586,-0.035l-0.415,0.678l5.539,-0.041Z" style="fill:#fff;"/><path d="M95.682,16.346l-0.805,-0.917c0,0 -0.252,0.587 -0.634,0.917c-0.381,0.33 -1.245,0.736 -1.779,0.991c-0.983,0.468 -1.639,0.744 -1.639,0.744l-0.158,0.631l5.015,-2.366Z" style="fill:#fff;"/><path d="M42.061,7.748l0.636,-0.773c0,0 0.702,0.654 1.214,0.705c0.72,0.072 3.45,-0.015 3.45,-0.015l0.419,0.584c-1.364,0.04 -2.712,0.042 -3.512,0.011c-0.801,-0.032 -1.987,-0.298 -2.207,-0.512Z" style="fill:#fff;"/><path d="M41.566,23.025l2.38,-0.188c0,0 -0.163,-3.661 -0.142,-6.65c0.022,-2.989 0.296,-5.542 0.414,-6.202c-2.458,0.318 -5.038,0.339 -7.765,0c0,0 0.148,2.389 0.148,3.395l1.921,-0.152c0,0 -0.006,-1.816 -0.063,-2.409c1.584,0.131 2.264,0.15 3.831,0.062c0,0 -0.019,2.401 -0.026,5.737c-0.009,4.059 -0.698,6.407 -0.698,6.407Z" style="fill:#fff;"/><path d="M54.394,9.985c-0.119,0.66 -0.393,3.213 -0.414,6.202c-0.022,2.989 0.141,6.65 0.141,6.65l-2.38,0.188c0,0 0.689,-2.348 0.698,-6.407c0.008,-3.336 0.027,-5.737 0.027,-5.737c-1.579,0.001 -2.212,0.035 -3.831,-0.062c0.054,0.575 0.199,3.416 0.199,3.52c0.382,0.154 0.518,0.242 0.916,0.586c-0.425,0.232 -0.784,0.437 -0.784,0.437c0.136,1.414 -0.074,7.471 -0.074,7.471l-2.264,0.192c0,0 0.695,-3.085 0.698,-4.395c0.006,-2.148 -0.262,-3.3 -0.262,-3.3c0.381,-0.177 0.975,-0.49 0.975,-0.49c-0.4,-0.173 -0.742,-0.253 -1.125,-0.344c0,-1.005 -0.286,-4.507 -0.286,-4.511c2.757,0.283 5.335,0.286 7.766,0Z" style="fill:#fff;"/><path d="M99,9.985c-0.119,0.66 -0.392,3.213 -0.414,6.202c-0.022,2.989 0.141,6.65 0.141,6.65l-2.379,0.188c0,0 0.688,-2.348 0.698,-6.407c0.007,-3.336 0.026,-5.737 0.026,-5.737c-1.564,0.082 -2.217,0.066 -3.831,-0.062c0.055,0.575 0.257,12.014 0.257,12.014l-2.264,0.192c0,0 0.477,-5.245 0.48,-6.555c0.006,-2.148 -0.479,-6.481 -0.48,-6.485c2.684,0.267 5.28,0.301 7.766,0Z" style="fill:#fff;"/><path d="M78.751,23.025c-1.252,-0.147 -2.017,-0.158 -3.137,-0.057c0.255,-0.516 0.339,-1.364 0.336,-1.623c0.606,-0.04 0.472,-0.007 0.912,0.032c0,0 0.171,-1.072 0.228,-3.136c0.064,-2.318 -0.359,-3.485 -0.359,-3.485c-0.876,-0.998 -1.995,-1.26 -3.573,-1.514c0.039,-0.616 0.009,-2.698 -0.08,-3.257c0,0 1.652,0.123 2.738,0.417c2.299,0.622 4.438,0.043 4.789,-0.697c0.213,0.139 1.087,1.975 0.111,2.329c-1.976,0.717 -4.456,-0.671 -4.865,-0.855c-0.505,-0.226 -0.95,-0.229 -0.95,-0.229l0.01,1.811c1.548,0.059 2.677,0.542 3.744,1.601l0.096,8.663Z" style="fill:#fff;"/><path d="M87.825,23.025c-1.251,-0.147 -2.017,-0.158 -3.136,-0.057c0.254,-0.516 0.339,-1.364 0.335,-1.623c0.607,-0.04 0.472,-0.007 0.913,0.032c0,0 0.17,-1.072 0.227,-3.136c0.064,-2.318 -0.359,-3.485 -0.359,-3.485c-0.876,-0.998 -1.995,-1.26 -3.572,-1.514c0.038,-0.616 0.008,-2.698 -0.08,-3.257c0,0 1.651,0.123 2.738,0.417c2.298,0.622 4.437,0.043 4.788,-0.697c0.213,0.139 1.088,1.975 0.112,2.329c-1.977,0.717 -4.456,-0.671 -4.866,-0.855c-0.505,-0.226 -0.95,-0.229 -0.95,-0.229l0.011,1.811c1.548,0.059 2.676,0.542 3.743,1.601l0.096,8.663Z" style="fill:#fff;"/><path d="M61.048,23.025c-1.252,-0.147 -2.017,-0.158 -3.137,-0.057c0.255,-0.516 0.339,-1.364 0.336,-1.623c0.606,-0.04 0.472,-0.007 0.912,0.032c0,0 0.171,-1.072 0.228,-3.136c0.064,-2.318 -0.359,-3.485 -0.359,-3.485c-0.876,-0.998 -1.995,-1.26 -3.573,-1.514c0.039,-0.616 0.009,-2.698 -0.08,-3.257c0,0 1.652,0.123 2.738,0.417c2.299,0.622 4.438,0.043 4.789,-0.697c0.213,0.139 1.087,1.975 0.111,2.329c-1.976,0.717 -4.456,-0.671 -4.865,-0.855c-0.505,-0.226 -0.95,-0.229 -0.95,-0.229l0.01,1.811c1.548,0.059 2.677,0.542 3.744,1.601l0.096,8.663Z" style="fill:#fff;"/><path d="M63.988,9.996c0,0 0.194,0.789 0.234,1.272c0.321,0.046 0.625,0.058 0.904,0.02c0.373,3.508 0.303,7.28 -0.085,11.737c0.302,-0.056 1.543,-0.114 1.959,-0.087c0.469,-1.889 1.029,-3.961 1.483,-5.076c0.315,1.153 0.834,3.509 1.307,5.163c0,0 1.358,-0.154 1.98,-0.122c-0.12,-4.303 -0.048,-9.085 0.053,-12.989c0,0 -1.663,0.037 -2.211,0.142c0.361,0.513 0.506,3.277 0.54,4.481c0.067,2.407 -0.05,2.732 -0.221,5.342c-0.56,-1.859 -1.02,-3.319 -1.434,-4.004c-0.432,0.737 -0.888,1.936 -1.449,3.746c0.041,-3.69 -0.035,-6.463 -0.028,-9.636c-0.559,0.027 -2.264,0.088 -3.032,0.011Z" style="fill:#fff;"/></g></g></svg>