<?xml version="1.0" encoding="utf-8"?>
<!-- Generator: Adobe Illustrator 22.0.0, SVG Export Plug-In . SVG Version: 6.00 Build 0)  -->
<svg version="1.1" id="Layer_1" xmlns:serif="http://www.serif.com/"
	 xmlns="http://www.w3.org/2000/svg" xmlns:xlink="http://www.w3.org/1999/xlink" x="0px" y="0px" viewBox="0 0 612 173"
	 style="enable-background:new 0 0 612 173;" xml:space="preserve">
<style type="text/css">
	.st1{fill:#BB2B1B;}
	.st0{fill:#FFFFFF;}
	.st2{fill:#16161B;}
</style>
<g id="logo_white">
	<g>
		<circle class="st1" cx="86.5" cy="86.5" r="86.5"/>
		<g>
			<path class="st0" d="M54.9,129.3c-4.3-2.1-9.1-5.6-12.4-9.8c-3.5-4.4-5.4-9.5-5.8-10.4c-2-5.3-3.2-11-3.3-16.8
				c0-2.6,0.1-5.2,0.6-7.7l0,0c1.8-0.3,3.5-0.7,5.3-1.1c6.9-1.6,13.8-3.7,20.6-5.9c4.9-1.6,9.8-3.3,14.5-5.5
				c5.8-2.6,11.4-5.7,16-9.8c0.1-0.1,0.1-0.1,0.2-0.2c0,0,0.2,0.4,0.3,0.7c3.1,8.6,8.4,16.2,14.6,22.9c5.2,5.6,11.8,10,19.1,12.2
				c3.1,0.9,6.4,1.5,9.6,1.3c0,1.1,0,2.1,0,3.2c-0.3,6.9-1.3,10.3-3.4,14.9c-3,4.5-8.4,10-17,13.5c-8,3.3-19.6,4.9-25,5.2
				C80.6,136.6,67.9,135.5,54.9,129.3L54.9,129.3z"/>
			<path class="st1" d="M62.7,116c0,0,2.3,4.9,8.2,6.7c4.9,1.5,9,0.6,11.4-0.8c0,0,1.1-8.2,4.9-10.3c2.3-1.3,4.4,0.1,4.4,2
				s-0.6,3.7-2.7,6c-2.2,2.4-8.6,5.2-13.8,5c-6.5-0.2-9.9-3.5-11-4.7C62.8,118.7,62.9,117.3,62.7,116z"/>
			<path class="st2" d="M88.9,99.6c0,0,1.8-5.9,8.8-8.7c0,0-3.1,4.7,0.9,12.6c0,0,0.6-1.1,1.2-0.7c0.5,0.4,0.4,2.6,0.4,2.6
				s0.9,0.5,2.3-0.1c1.4-0.5,3.5-2.1,3.4-6.4s-0.8-5.8-0.8-5.8s-0.1,0.3-0.3,0.4c-0.2,0.1-1-0.6-0.6-2.3c0,0-0.6-1.1-0.8-1.3
				c0,0,3.7,0.6,6.3,4c2.6,3.4,2.8,10.1-2.2,14.2c0,0,6.3-3.1,5.1-12.6c0,0,1.3,0.9,2.5,2.9c0,0-1.4-4.3-5-7.3s-8.7-3.5-13.4-1.7
				C92,91.3,89.9,94.8,88.9,99.6L88.9,99.6z"/>
			<path class="st2" d="M47.3,103.6c0,0-1.4-1.4-2-2.9c-0.5-1.5-0.9-4.4-0.3-6.2c0.6-1.7,1.6-4.9,6.9-5.4c0,0-4.4,4.3-0.8,13.1
				c0,0,0.5-0.7,0.9-0.4c0.4,0.3-0.2,1.8-0.2,1.8s1.3,1.2,3.2,0.5c1.8-0.7,2.9-3.4,3.1-5.8c0.2-2.4,0.2-5.1,0-5.9
				c0,0-0.6,0.4-0.8,0.1s0.4-0.7,0.4-0.7s3.2,2.2,4.9,5.4c0,0-1.7-4.1-4.2-6.6s-6.6-3.6-9.7-2.4c-3,1.2-5.5,4-6.1,7.3
				c0,0,0.9-2.3,2-3.4c0,0-1,3-0.5,5.6C44.4,99.9,44.9,101.5,47.3,103.6L47.3,103.6z"/>
			<path class="st0" d="M91.6,55.5c0,0,3.5,5.4,14.2,7.4c10.8,2,17.3-0.1,17.3-0.1s8.2-16.5,11.7-20.5c0,0-6.1,2.4-9.8-0.5
				c-3.7-2.8-8.8-8-11.5-22.2c0,0-3.7,4.9-9.1,9.1s-10.6,7.8-17.2,5.4C87.2,34.1,90.5,46.7,91.6,55.5z"/>
			<path class="st2" d="M135.8,99.4c0.3-9.4-4.7-22-4.7-22s3.5,14.1,3.2,20.3c0,0-14.3,1.3-27.4-12.7C93.8,71.1,91.4,59.1,91.4,59.1
				s-6.3,8.3-28.3,15.8s-31.6,8.6-31.6,8.6l1,0.4c0,0-1.9,7.4,0.4,17.8c1.1,5,1.4,6.5,1.4,6.5c-2.6-6.6-4.6-13.9-4.8-18.1
				c-0.7-9.3,1-19.8,10.9-30.6c11.3-12.3,29.5-17.3,46.9-17.3c1,4.3,1.9,8.6,2.5,13c0,0.4,0.1,0.7,0.2,1.1l0.2,0.3
				c0.6,0.9,1.3,1.6,2.1,2.3c3.2,2.8,7.3,4.5,11.4,5.4c5.9,1.4,12.3,1.8,18.3,0.6c0.7-0.1,1.4-0.2,1.9-0.6c0.3-0.2,0.4-0.3,0.6-0.7
				l0,0c1.4-2.8,0.7-1.5,2.2-4.3l1.2-2.3c15.8,15.2,11.5,38.5,7.9,45.4L135.8,99.4z"/>
		</g>
	</g>
	<g>
		<path class="st2" d="M242.6,92.8l3.7,5.1c0,0,3-1.3,5.8-1.4c4.5-0.3,22.2,0.2,22.2,0.2l2.6-4.2L242.6,92.8L242.6,92.8z"/>
		<path class="st2" d="M606.5,46.1l-3.7-5.1c0,0-3,1.3-5.8,1.4c-4.5,0.3-22.2-0.2-22.2-0.2l-2.6,4.2L606.5,46.1L606.5,46.1z"/>
		<path class="st2" d="M591.5,94.8l-5-5.7c0,0-1.6,3.6-3.9,5.7c-2.4,2-7.7,4.5-11,6.1c-6.1,2.9-10.1,4.6-10.1,4.6l-1,3.9L591.5,94.8
			z"/>
		<path class="st2" d="M260,41.7l3.9-4.8c0,0,4.3,4,7.5,4.4c4.5,0.4,21.3-0.1,21.3-0.1l2.6,3.6c-8.4,0.2-16.8,0.3-21.7,0.1
			C268.7,44.6,261.4,43,260,41.7z"/>
		<path class="st2" d="M257,136.1l14.7-1.2c0,0-1-22.6-0.9-41.1s1.8-34.3,2.6-38.3c-15.2,2-31.1,2.1-48,0c0,0,0.9,14.8,0.9,21
			l11.9-0.9c0,0,0-11.2-0.4-14.9c9.8,0.8,14,0.9,23.7,0.4c0,0-0.1,14.8-0.2,35.5C261.2,121.6,257,136.1,257,136.1L257,136.1z"/>
		<path class="st2" d="M336.3,55.5c-0.7,4.1-2.4,19.9-2.6,38.3c-0.1,18.5,0.9,41.1,0.9,41.1l-14.7,1.2c0,0,4.3-14.5,4.3-39.6
			c0-20.6,0.2-35.5,0.2-35.5c-9.8,0-13.7,0.2-23.7-0.4c0.3,3.6,1.2,21.1,1.2,21.8c2.4,1,3.2,1.5,5.7,3.6c-2.6,1.4-4.8,2.7-4.8,2.7
			c0.8,8.7-0.5,46.2-0.5,46.2l-14,1.2c0,0,4.3-19.1,4.3-27.2c0-13.3-1.6-20.4-1.6-20.4c2.4-1.1,6-3,6-3c-2.5-1.1-4.6-1.6-7-2.1
			c0-6.2-1.8-27.9-1.8-27.9C305.3,57.2,321.2,57.3,336.3,55.5L336.3,55.5z"/>
		<path class="st2" d="M612,55.5c-0.7,4.1-2.4,19.9-2.6,38.3c-0.1,18.5,0.9,41.1,0.9,41.1l-14.7,1.2c0,0,4.3-14.5,4.3-39.6
			c0-20.6,0.2-35.5,0.2-35.5c-9.7,0.5-13.7,0.4-23.7-0.4c0.3,3.6,1.6,74.3,1.6,74.3l-14,1.2c0,0,2.9-32.4,3-40.5
			c0-13.3-3-40.1-3-40.1C580.6,57.1,596.6,57.4,612,55.5z"/>
		<path class="st2" d="M486.8,136.1c-7.7-0.9-12.5-1-19.4-0.4c1.6-3.2,2.1-8.4,2.1-10c3.7-0.2,2.9,0,5.6,0.2c0,0,1.1-6.6,1.4-19.4
			c0.4-14.3-2.2-21.5-2.2-21.5c-5.4-6.2-12.3-7.8-22.1-9.4c0.2-3.8,0.1-16.7-0.5-20.1c0,0,10.2,0.8,16.9,2.6
			c14.2,3.8,27.4,0.3,29.6-4.3c1.3,0.9,6.7,12.2,0.7,14.4c-12.2,4.4-27.5-4.1-30.1-5.3c-3.1-1.4-5.9-1.4-5.9-1.4l0.1,11.2
			c9.6,0.4,16.5,3.4,23.1,9.9L486.8,136.1L486.8,136.1z"/>
		<path class="st2" d="M542.9,136.1c-7.7-0.9-12.5-1-19.4-0.4c1.6-3.2,2.1-8.4,2.1-10c3.8-0.2,2.9,0,5.6,0.2c0,0,1.1-6.6,1.4-19.4
			c0.4-14.3-2.2-21.5-2.2-21.5c-5.4-6.2-12.3-7.8-22.1-9.4c0.2-3.8,0-16.7-0.5-20.1c0,0,10.2,0.8,16.9,2.6
			c14.2,3.8,27.4,0.3,29.6-4.3c1.3,0.9,6.7,12.2,0.7,14.4c-12.2,4.4-27.5-4.1-30.1-5.3c-3.1-1.4-5.9-1.4-5.9-1.4l0.1,11.2
			c9.6,0.4,16.5,3.4,23.1,9.9L542.9,136.1L542.9,136.1z"/>
		<path class="st2" d="M377.4,136.1c-7.7-0.9-12.5-1-19.4-0.4c1.6-3.2,2.1-8.4,2.1-10c3.7-0.2,2.9,0,5.6,0.2c0,0,1.1-6.6,1.4-19.4
			c0.4-14.3-2.2-21.5-2.2-21.5c-5.4-6.2-12.3-7.8-22.1-9.4c0.2-3.8,0.1-16.7-0.5-20.1c0,0,10.2,0.8,16.9,2.6
			c14.2,3.8,27.4,0.3,29.6-4.3c1.3,0.9,6.7,12.2,0.7,14.4c-12.2,4.4-27.5-4.1-30.1-5.3c-3.1-1.4-5.9-1.4-5.9-1.4l0.1,11.2
			c9.6,0.4,16.5,3.4,23.1,9.9L377.4,136.1L377.4,136.1z"/>
		<path class="st2" d="M395.6,55.6c0,0,1.2,4.9,1.4,7.9c2,0.3,3.9,0.4,5.6,0.1c2.3,21.7,1.9,45-0.5,72.6c1.9-0.3,9.5-0.7,12.1-0.5
			c2.9-11.7,6.4-24.5,9.2-31.4c1.9,7.1,5.2,21.7,8.1,31.9c0,0,8.4-1,12.2-0.8c-0.7-26.6-0.3-56.2,0.3-80.3c0,0-10.3,0.2-13.7,0.9
			c2.2,3.2,3.1,20.3,3.3,27.7c0.4,14.9-0.3,16.9-1.4,33c-3.5-11.5-6.3-20.5-8.9-24.8c-2.7,4.6-5.5,12-9,23.2
			c0.3-22.8-0.2-40-0.2-59.6C410.8,55.7,400.3,56,395.6,55.6L395.6,55.6z"/>
	</g>
</g>
</svg>
