<?xml version="1.0" encoding="UTF-8" standalone="no"?><!DOCTYPE svg PUBLIC "-//W3C//DTD SVG 1.1//EN" "http://www.w3.org/Graphics/SVG/1.1/DTD/svg11.dtd"><svg width="100%" height="100%" viewBox="0 0 324 90" version="1.1" xmlns="http://www.w3.org/2000/svg" xmlns:xlink="http://www.w3.org/1999/xlink" xml:space="preserve" xmlns:serif="http://www.serif.com/" style="fill-rule:evenodd;clip-rule:evenodd;stroke-linejoin:round;stroke-miterlimit:1.41421;"><g id="hero_1"><g transform="matrix(0.987688,-0.156434,-6.35858e-17,1.01247,-0.44401,-5.42566)"><text x="-0.995px" y="69.148px" style="font-family:'Kanit-Medium', 'Kanit';font-weight:500;font-size:44.809px;fill:#fff;">ก<tspan x="28.437px 28.437px 51.67px 80.392px 106.891px 106.891px 136.843px 183.073px 206.307px " y="69.148px 69.148px 69.148px 69.148px 69.148px 69.148px 69.148px 69.148px 69.148px ">๋วยจับญวน</tspan></text></g><g transform="matrix(0.987688,-0.156434,-6.35858e-17,1.01247,1.32251,16.8679)"><text x="121.016px" y="37.981px" style="font-family:'Kanit-Medium', 'Kanit';font-weight:500;font-size:44.806px;fill:#fff;">๊</text></g><g transform="matrix(0.987688,-0.156434,-6.35858e-17,1.01247,1.82729,23.0654)"><text x="90.794px" y="73.189px" style="font-family:'Kanit-Medium', 'Kanit';font-weight:500;font-size:31.582px;fill:#fff;">ส<tspan x="111.538px 111.538px 133.516px 150.291px 172.269px 172.269px 192.88px 214.858px 229.699px 246.475px 246.475px 267.586px 286.729px 286.729px 307.84px " y="73.189px 73.189px 73.189px 73.189px 73.189px 73.189px 73.189px 73.189px 73.189px 73.189px 73.189px 73.189px 73.189px 73.189px 73.189px ">ูตรต้นตำรับอุบล</tspan></text></g></g></svg>