<?xml version="1.0" encoding="UTF-8" standalone="no"?>
<!DOCTYPE svg PUBLIC "-//W3C//DTD SVG 1.1//EN" "http://www.w3.org/Graphics/SVG/1.1/DTD/svg11.dtd">
<svg width="100%" height="100%" viewBox="0 -10 478 190" version="1.1" xmlns="http://www.w3.org/2000/svg" xmlns:xlink="http://www.w3.org/1999/xlink" xml:space="preserve" xmlns:serif="http://www.serif.com/" style="fill-rule:evenodd;clip-rule:evenodd;stroke-linejoin:round;stroke-miterlimit:1.41421;">
    <defs>
        <filter id="f3" x="0" y="0" width="200%" height="200%">
            <feOffset result="offOut" in="SourceAlpha" dx="5" dy="5" />
            <feGaussianBlur result="blurOut" in="offOut" stdDeviation="3"/>
            <feBlend in="SourceGraphic" in2="blurOut" mode="normal" />
        </filter>
    </defs>
    <g transform="matrix(1,0,0,1,-406,-614)" filter="url(#f3)">
        <g transform="matrix(1,0,0,5.98439,0,0)">
            <g transform="matrix(0.875364,-0.0231676,0,0.149944,-435.157,12.4634)">
                <g transform="matrix(1,0,0,1,-137.156,342.001)">
                    <path d="M1168.4,503.444C1166.09,503.444 1164.45,502.965 1163.48,502.008C1162.5,501.051 1162.01,499.507 1162.01,497.377L1162.01,474.194L1169.33,474.194L1169.33,495.481C1169.33,496.998 1170.07,497.756 1171.55,497.756L1173.39,497.756L1173.39,503.444L1168.4,503.444Z" style="fill:white;fill-rule:nonzero;"/>
                    <path d="M1169.54,469.773C1170.29,469.942 1170.5,470.046 1170.9,470.251C1172.66,471.151 1173.84,472.728 1173.89,474.9C1173.89,474.9 1174.06,493.451 1174.06,493.451C1174.06,493.451 1177.87,495.151 1177.96,498.462L1177.96,504.15C1177.94,504.879 1177.88,505.073 1177.75,505.447C1177.24,506.966 1176.12,507.906 1174.1,507.957L1169.11,507.957C1163.56,507.921 1157.5,503.927 1157.44,496.686L1157.44,473.488C1157.46,472.758 1157.53,472.564 1157.65,472.19C1158.16,470.671 1159.28,469.731 1161.3,469.68L1168.61,469.68C1169.32,469.698 1169.33,469.737 1169.54,469.773ZM1162.01,474.194C1162.01,482.179 1161.73,489.908 1162.03,497.961C1162.11,499.44 1162.39,501.062 1163.62,502.14C1164.98,503.338 1166.85,503.433 1168.4,503.444L1173.39,503.444L1173.39,497.756C1172.18,497.756 1170.84,498.054 1169.95,497.256C1169.43,496.787 1169.33,496.08 1169.33,495.481L1169.33,474.194L1162.01,474.194Z" style="fill:rgb(23,66,23);"/>
                    <path d="M1187.8,503.985C1184.76,503.985 1182.31,503.245 1180.43,501.764C1178.55,500.284 1177.61,497.955 1177.61,494.777C1177.61,491.852 1178.61,489.604 1180.59,488.033C1182.58,486.462 1185.43,485.677 1189.15,485.677L1197.44,485.677L1197.44,484.269C1197.44,482.463 1196.93,481.19 1195.92,480.45C1194.91,479.71 1193.12,479.339 1190.56,479.339C1187.16,479.339 1183.93,479.827 1180.86,480.802L1180.86,475.331C1182.42,474.826 1184.17,474.419 1186.12,474.112C1188.07,473.805 1189.94,473.652 1191.75,473.652C1193.77,473.652 1195.51,473.832 1196.95,474.194L1207.13,474.194L1206.76,479.773L1203.45,479.773C1204.32,481.109 1204.75,482.86 1204.75,485.027L1204.75,503.444L1197.44,503.444L1197.44,491.039L1189.58,491.039C1187.92,491.039 1186.67,491.328 1185.82,491.906C1184.97,492.484 1184.55,493.441 1184.55,494.777C1184.55,496.113 1184.93,497.034 1185.71,497.539C1186.49,498.045 1187.83,498.298 1189.75,498.298C1191.41,498.298 1192.65,498.153 1193.48,497.864L1193.48,503.227C1191.86,503.732 1189.96,503.985 1187.8,503.985Z" style="fill:white;fill-rule:nonzero;"/>
                    <path d="M1207.41,469.787C1208.32,470.005 1208.59,470.16 1209.08,470.463C1210.74,471.484 1211.78,473.053 1211.69,475.19L1211.32,480.769C1211.15,482.445 1209.23,483.899 1209.23,483.899C1209.32,484.786 1209.31,483.433 1209.32,485.719L1209.32,504.15C1209.3,504.891 1209.25,505.007 1209.15,505.321C1208.68,506.906 1207.55,507.9 1205.47,507.957L1198.15,507.957C1196.49,507.912 1195.83,507.508 1194.25,507.884C1193.2,508.132 1192.13,508.296 1191.04,508.392C1185.23,508.902 1178.24,507.889 1174.68,501.228C1171.38,495.041 1172.98,487.487 1177.96,483.934C1177.96,483.934 1176.34,481.919 1176.29,480.096L1176.29,474.625C1176.31,473.9 1176.36,473.787 1176.45,473.479C1177.24,470.782 1180.98,470.271 1184.33,469.716C1188.49,469.026 1192.85,468.762 1197.21,469.78L1196.8,469.68L1206.66,469.687C1206.95,469.71 1206.76,469.666 1207.41,469.787ZM1196.95,474.194C1196.81,474.16 1196.67,474.128 1196.54,474.097C1191.22,472.963 1185.9,473.741 1181.01,475.284C1181.01,475.284 1180.86,480.802 1180.86,480.802C1182.68,480.236 1183.2,480.138 1184.38,479.911C1189.84,478.87 1197.38,477.544 1197.44,484.269L1197.44,485.677C1190.41,485.677 1182.1,483.863 1178.61,490.383C1176.68,493.981 1176.94,499.584 1181.16,502.285C1184.99,504.737 1189.73,504.37 1193.48,503.227L1193.48,497.864C1190.74,498.789 1186.72,498.686 1185.32,497.211C1182.97,494.755 1185.4,491.062 1189.58,491.039L1197.44,491.039L1197.44,503.444L1204.75,503.444C1204.75,497.046 1204.95,491.046 1204.74,484.428C1204.65,482.466 1203.45,479.773 1203.45,479.773L1206.76,479.773L1207.13,474.194L1196.95,474.194Z" style="fill:rgb(23,66,23);"/>
                    <path d="M1192.62,465.364L1188.39,465.364L1188.39,460.381L1197.55,460.381L1197.55,465.202L1209.14,465.202L1208.87,470.185L1192.62,470.185L1192.62,465.364Z" style="fill:white;fill-rule:nonzero;"/>
                    <path d="M1197.79,455.968C1198.58,456.147 1198.83,456.275 1199.29,456.528C1200.85,457.398 1201.89,458.792 1202.1,460.689L1208.42,460.689C1211.16,460.747 1213.79,463.367 1213.7,466.141L1213.43,471.124C1213.38,471.813 1213.31,472.01 1213.16,472.378C1212.6,473.797 1211.47,474.658 1209.58,474.699L1193.33,474.699C1190.75,474.644 1188.22,472.288 1188.06,469.757C1188.06,469.757 1183.9,468.147 1183.82,464.658L1183.82,459.675C1183.84,458.919 1183.91,458.681 1184.07,458.258C1184.62,456.801 1185.77,455.908 1187.68,455.868L1196.83,455.868C1197.1,455.874 1197.14,455.846 1197.79,455.968ZM1188.39,460.381L1188.39,465.364L1192.62,465.364L1192.62,470.185L1208.87,470.185L1209.14,465.202L1197.55,465.202L1197.55,460.381L1188.39,460.381Z" style="fill:rgb(23,66,23);"/>
                    <path d="M1222.36,503.985C1219.21,503.985 1216.74,503.028 1214.93,501.114C1213.13,499.201 1212.23,496.564 1212.23,493.206L1212.23,474.194L1219.54,474.194L1219.54,492.773C1219.54,494.723 1219.97,496.131 1220.84,496.998C1221.7,497.864 1223.02,498.298 1224.79,498.298C1226.13,498.298 1227.46,498.009 1228.77,497.431C1230.09,496.853 1231.15,496.131 1231.94,495.264L1231.94,474.194L1239.26,474.194L1239.26,503.444L1232.54,503.444L1232.21,500.573C1229.4,502.848 1226.11,503.985 1222.36,503.985Z" style="fill:white;fill-rule:nonzero;"/>
                    <path d="M1239.52,469.785C1240.32,469.976 1240.54,470.093 1240.96,470.322C1242.66,471.25 1243.77,472.753 1243.82,474.9L1243.82,504.15C1243.8,504.906 1243.74,505.106 1243.6,505.493C1243.08,506.987 1241.98,507.904 1239.97,507.957L1233.25,507.957C1232.1,507.926 1230.84,507.006 1230.11,507.281C1223.9,509.548 1215.32,509.254 1210.44,502.187C1208.46,499.33 1207.7,495.921 1207.66,492.694C1207.66,492.694 1207.66,473.255 1207.66,473.255C1207.72,472.549 1207.78,472.441 1207.88,472.145C1208.4,470.65 1209.5,469.733 1211.51,469.68L1218.82,469.68C1219.73,469.705 1220.01,469.801 1220.54,469.999C1222.57,470.758 1224.04,472.514 1224.11,474.9C1224.11,481.227 1223.89,487.545 1224.11,493.784C1225.58,493.774 1227.37,492.748 1227.37,492.748L1227.38,473.255C1227.44,472.507 1227.52,472.312 1227.68,471.937C1228.26,470.555 1229.29,469.731 1231.23,469.68L1238.54,469.68C1238.71,469.685 1238.89,469.668 1239.52,469.785ZM1231.94,474.194L1231.94,495.264C1228.71,498.741 1221.27,500.066 1219.84,495.225C1219.6,494.41 1219.54,493.582 1219.54,492.773L1219.54,474.194L1212.23,474.194C1212.23,480.583 1212.2,486.969 1212.23,493.363C1212.27,497.083 1213.73,501.294 1217.69,503.077C1222.96,505.454 1228.54,503.509 1232.21,500.573L1232.54,503.444L1239.26,503.444L1239.26,474.194L1231.94,474.194Z" style="fill:rgb(23,66,23);"/>
                    <path d="M1252.26,503.444C1249.94,503.444 1248.3,502.965 1247.33,502.008C1246.35,501.051 1245.86,499.507 1245.86,497.377L1245.86,474.194L1253.18,474.194L1253.18,495.481C1253.18,496.998 1253.92,497.756 1255.4,497.756L1257.24,497.756L1257.24,503.444L1252.26,503.444Z" style="fill:white;fill-rule:nonzero;"/>
                    <path d="M1253.39,469.773C1254.14,469.942 1254.35,470.046 1254.75,470.251C1256.51,471.153 1257.69,472.727 1257.75,474.9C1257.75,474.9 1257.91,493.451 1257.91,493.451C1257.91,493.451 1261.72,495.151 1261.81,498.462L1261.81,504.15C1261.79,504.879 1261.73,505.073 1261.6,505.447C1261.09,506.966 1259.97,507.906 1257.95,507.957L1252.95,507.957C1247.38,507.921 1241.35,503.924 1241.29,496.687L1241.29,473.488C1241.31,472.758 1241.38,472.564 1241.5,472.19C1242.01,470.671 1243.13,469.731 1245.15,469.68L1252.46,469.68C1252.62,469.684 1252.79,469.669 1253.39,469.773ZM1245.86,474.194C1245.86,482.179 1245.58,489.908 1245.88,497.961C1245.95,499.44 1246.24,501.062 1247.47,502.14C1248.83,503.338 1250.7,503.433 1252.26,503.444L1257.24,503.444L1257.24,497.756C1256.03,497.756 1254.68,498.054 1253.8,497.256C1253.28,496.787 1253.18,496.08 1253.18,495.481L1253.18,474.194L1245.86,474.194Z" style="fill:rgb(23,66,23);"/>
                    <path d="M1262.38,474.194L1269.7,474.194L1269.7,483.077L1276.95,483.077C1278.76,483.077 1280.03,482.68 1280.77,481.885C1281.51,481.091 1281.88,479.845 1281.88,478.148L1281.88,474.194L1289.2,474.194L1289.2,477.877C1289.2,481.957 1287.81,484.557 1285.03,485.677C1286.47,486.255 1287.49,487.112 1288.09,488.25C1288.68,489.387 1288.98,490.823 1288.98,492.556L1288.98,503.444L1281.67,503.444L1281.67,493.369C1281.67,491.527 1281.32,490.245 1280.61,489.523C1279.91,488.801 1278.63,488.439 1276.79,488.439L1269.7,488.439L1269.7,503.444L1262.38,503.444L1262.38,474.194Z" style="fill:white;fill-rule:nonzero;"/>
                    <path d="M1289.46,469.785C1290.27,469.976 1290.48,470.093 1290.9,470.322C1294.38,472.226 1294.03,477.164 1293.66,480.667C1293.45,482.664 1292.86,484.575 1291.84,486.19C1291.84,486.19 1293.53,490.22 1293.55,493.25L1293.55,504.15C1293.53,504.935 1293.45,505.142 1293.31,505.541C1292.77,507.009 1291.7,507.902 1289.69,507.957L1282.38,507.957C1281.48,507.933 1281.19,507.836 1280.67,507.638C1278.63,506.879 1277.16,505.123 1277.1,502.738L1277.1,492.953L1274.27,492.953L1274.27,504.15C1274.25,504.891 1274.19,505.007 1274.1,505.321C1273.62,506.906 1272.5,507.9 1270.41,507.957L1263.1,507.957C1262.2,507.933 1261.91,507.836 1261.38,507.638C1259.35,506.879 1257.88,505.123 1257.81,502.738L1257.81,473.488C1257.84,472.703 1257.91,472.495 1258.06,472.096C1258.59,470.628 1259.66,469.735 1261.67,469.68L1268.98,469.68C1271.1,469.737 1271.33,470.2 1272.07,470.747C1273.42,471.756 1274.21,473 1274.27,474.9L1274.27,478.564C1275.47,478.564 1277.2,478.476 1277.2,478.476C1277.3,478.145 1277.31,477.783 1277.31,477.427L1277.31,473.488C1277.34,472.746 1277.39,472.63 1277.48,472.316C1277.96,470.732 1279.08,469.737 1281.17,469.68L1288.48,469.68C1289.24,469.701 1289.24,469.744 1289.46,469.785ZM1281.88,474.194C1281.88,477.388 1282.3,480.489 1280.63,482.03C1279.7,482.89 1278.27,483.068 1276.95,483.077L1269.7,483.077L1269.7,474.194L1262.38,474.194L1262.38,503.444L1269.7,503.444L1269.7,488.439C1275.08,488.439 1281.62,485.86 1281.67,493.369L1281.67,503.444L1288.98,503.444C1288.98,496.658 1291.26,488.231 1285.03,485.677C1287.45,484.672 1286.98,484.816 1287.95,483.243C1288.9,481.702 1289.19,479.782 1289.2,477.877L1289.2,474.194L1281.88,474.194Z" style="fill:rgb(23,66,23);"/>
                    <path d="M1305.56,503.985C1302.41,503.985 1299.94,503.028 1298.13,501.114C1296.33,499.201 1295.43,496.564 1295.43,493.206L1295.43,474.194L1302.74,474.194L1302.74,492.773C1302.74,494.723 1303.17,496.131 1304.04,496.998C1304.9,497.864 1306.22,498.298 1307.99,498.298C1309.33,498.298 1310.66,498.009 1311.97,497.431C1313.29,496.853 1314.35,496.131 1315.14,495.264L1315.14,474.194L1322.45,474.194L1322.45,503.444L1315.74,503.444L1315.41,500.573C1312.6,502.848 1309.31,503.985 1305.56,503.985Z" style="fill:white;fill-rule:nonzero;"/>
                    <path d="M1322.72,469.785C1323.52,469.976 1323.74,470.093 1324.16,470.322C1325.86,471.25 1326.96,472.753 1327.02,474.9L1327.02,504.15C1327,504.906 1326.94,505.106 1326.8,505.493C1326.28,506.987 1325.18,507.904 1323.17,507.957L1316.45,507.957C1315.3,507.926 1314.04,507.005 1313.31,507.282C1307.1,509.546 1298.52,509.252 1293.64,502.187C1291.66,499.327 1290.9,495.906 1290.86,492.693C1290.86,492.693 1290.86,473.255 1290.86,473.255C1290.92,472.507 1291,472.312 1291.16,471.937C1291.74,470.555 1292.78,469.731 1294.71,469.68L1302.02,469.68C1304.14,469.737 1304.37,470.2 1305.11,470.747C1306.46,471.756 1307.26,473 1307.31,474.9C1307.31,481.227 1307.09,487.565 1307.31,493.784C1308.77,493.775 1310.57,492.748 1310.57,492.748C1310.57,492.748 1310.58,473.255 1310.58,473.255C1310.64,472.507 1310.72,472.312 1310.88,471.937C1311.45,470.555 1312.49,469.731 1314.43,469.68L1321.74,469.68C1321.91,469.685 1322.09,469.668 1322.72,469.785ZM1315.14,474.194L1315.14,495.264C1311.91,498.741 1304.47,500.066 1303.04,495.225C1302.8,494.41 1302.74,493.582 1302.74,492.773L1302.74,474.194L1295.43,474.194C1295.43,480.583 1295.4,486.969 1295.43,493.363C1295.47,497.083 1296.93,501.294 1300.89,503.077C1306.16,505.454 1311.74,503.509 1315.41,500.573L1315.74,503.444L1322.45,503.444L1322.45,474.194L1315.14,474.194Z" style="fill:rgb(23,66,23);"/>
                    <path d="M1299.16,465.202L1316.5,465.202L1316.5,460.814L1322.45,460.814L1322.45,470.185L1298.78,470.185L1299.16,465.202Z" style="fill:white;fill-rule:nonzero;"/>
                    <path d="M1322.57,456.376C1323.33,456.529 1323.56,456.638 1323.99,456.854C1325.78,457.751 1326.98,459.395 1327.02,461.52L1327.02,470.891C1327.01,471.615 1326.94,471.823 1326.81,472.214C1326.29,473.722 1325.13,474.655 1323.17,474.698L1299.5,474.698C1298.66,474.68 1298.38,474.592 1297.86,474.409C1295.71,473.646 1294.11,471.349 1294.23,469.155L1294.61,464.172C1294.68,463.452 1294.76,463.249 1294.93,462.87C1295.53,461.526 1296.61,460.73 1298.45,460.689L1311.93,460.689C1311.93,460.689 1311.85,459.63 1312.14,458.785C1312.66,457.278 1313.82,456.345 1315.78,456.301L1321.74,456.301C1322.38,456.316 1322.38,456.346 1322.57,456.376ZM1316.5,460.814L1316.5,465.202L1299.16,465.202L1298.78,470.185L1322.45,470.185L1322.45,460.814L1316.5,460.814Z" style="fill:rgb(23,66,23);"/>
                    <path d="M1341.47,503.985C1337.21,503.985 1333.8,503.245 1331.26,501.764C1328.71,500.284 1327.44,497.882 1327.44,494.56C1327.44,493.224 1327.75,492.005 1328.36,490.904C1328.97,489.803 1329.89,488.909 1331.12,488.223C1330.04,487.753 1329.17,487.004 1328.52,485.975C1327.87,484.946 1327.55,483.727 1327.55,482.319C1327.55,479.538 1328.42,477.398 1330.17,475.9C1331.92,474.401 1334.28,473.652 1337.24,473.652C1339.27,473.652 1340.94,473.905 1342.28,474.41L1342.28,479.773C1341.23,479.484 1339.99,479.339 1338.54,479.339C1337.17,479.339 1336.15,479.574 1335.48,480.044C1334.81,480.513 1334.48,481.271 1334.48,482.319C1334.48,483.474 1334.84,484.287 1335.56,484.756C1336.29,485.226 1337.44,485.46 1339.03,485.46L1342.06,485.46L1342.33,490.823L1338.98,490.823C1335.91,490.823 1334.37,492.069 1334.37,494.56C1334.37,495.824 1334.92,496.763 1336.02,497.377C1337.12,497.991 1338.83,498.298 1341.14,498.298C1345.73,498.298 1348.02,496.402 1348.02,492.61L1348.02,474.194L1355.33,474.194L1355.33,491.96C1355.33,496.077 1354.16,499.11 1351.81,501.06C1349.47,503.01 1346.02,503.985 1341.47,503.985Z" style="fill:white;fill-rule:nonzero;"/>
                    <path d="M1355.57,469.779C1356.45,469.982 1356.71,470.126 1357.19,470.408C1358.81,471.361 1359.85,472.818 1359.9,474.9C1359.9,487.611 1362.57,501.3 1352.4,506.429C1343.14,511.107 1327.2,509.585 1323.56,498.404C1322.35,494.706 1322.71,490.784 1324.56,487.801C1324.56,487.801 1321.1,478.937 1325.65,473.534C1329.57,468.891 1337.45,467.399 1343.72,470.403C1345.1,471.062 1344.88,470.451 1345.15,470.285C1345.52,470.049 1345.94,469.877 1346.38,469.779C1346.68,469.714 1346.99,469.689 1347.31,469.68L1354.62,469.68C1354.79,469.685 1354.96,469.669 1355.57,469.779ZM1348.02,474.194L1348.02,492.61C1347.96,498.91 1336.83,499.858 1334.76,496.168C1333.3,493.576 1335.81,490.843 1338.98,490.823L1342.33,490.823L1342.06,485.46C1338.7,485.46 1334.48,485.649 1334.48,482.319C1334.48,479.534 1338.44,478.78 1342.18,479.746C1342.18,479.746 1342.28,474.41 1342.28,474.41C1338.74,473.102 1336.37,473.422 1333.93,474.023C1329.47,475.124 1325.78,479.826 1328.1,485.167C1328.35,485.743 1328.69,486.293 1329.12,486.777C1329.78,487.524 1331.44,488.02 1330.78,488.421C1325.35,491.848 1326.36,501.954 1336.87,503.646C1344.1,504.811 1352.36,503.826 1354.66,496.741C1355.15,495.233 1355.33,493.608 1355.33,491.96L1355.33,474.194L1348.02,474.194Z" style="fill:rgb(23,66,23);"/>
                    <path d="M1369.15,503.985C1365.64,503.985 1362.54,503.407 1359.83,502.252L1359.83,496.673C1362.29,497.756 1364.81,498.298 1367.41,498.298C1370.84,498.298 1373.28,497.585 1374.73,496.158C1376.17,494.732 1376.89,492.285 1376.89,488.819C1376.89,485.352 1376.17,482.905 1374.73,481.479C1373.28,480.053 1370.84,479.339 1367.41,479.339C1364.81,479.339 1362.29,479.881 1359.83,480.964L1359.83,475.385C1362.54,474.23 1365.64,473.652 1369.15,473.652C1374.06,473.652 1377.73,474.934 1380.17,477.498C1382.61,480.062 1383.83,483.835 1383.83,488.819C1383.83,493.802 1382.61,497.576 1380.17,500.139C1377.73,502.703 1374.06,503.985 1369.15,503.985Z" style="fill:white;fill-rule:nonzero;"/>
                    <path d="M1372.83,469.47C1377.95,470.318 1383.03,473.192 1385.78,478.121C1392.62,490.384 1387.09,505.55 1375.16,507.998C1369.94,509.071 1364.1,508.634 1358.77,506.425C1358.77,506.425 1355.34,504.637 1355.26,501.546L1355.26,495.967C1355.28,495.126 1355.37,494.886 1355.55,494.443C1356.41,492.354 1358.68,491.614 1361.63,492.808C1366.13,494.565 1371.31,494.169 1372.04,491.014C1372.53,488.93 1372.76,486.468 1371.78,484.477C1371.36,483.644 1370.03,483.906 1368.76,483.863C1366.43,483.784 1364.21,484.271 1362.19,485.146C1362.19,485.146 1355.39,485.381 1355.26,480.258L1355.26,474.679C1355.28,473.972 1355.33,473.861 1355.41,473.56C1355.87,471.963 1357.42,471.141 1359.21,470.541C1363.42,469.125 1368.16,468.748 1372.83,469.47ZM1372.4,473.863C1367.99,473.275 1363.6,473.791 1359.83,475.385L1359.83,480.964C1361.64,480.178 1361.77,480.204 1362.62,479.974C1366.75,478.86 1372.07,478.648 1374.86,481.616C1376.66,483.535 1376.89,486.238 1376.89,488.819C1376.89,491.489 1376.52,494.255 1374.86,496.021C1371.28,499.831 1364.4,498.658 1359.83,496.673L1359.83,502.252C1370.65,506.823 1384.16,502.832 1383.82,488.126C1383.81,487.609 1383.78,487.091 1383.74,486.571C1383.41,482.599 1381.87,478.021 1377.82,475.639C1376.1,474.629 1374.68,474.193 1372.4,473.863Z" style="fill:rgb(23,66,23);"/>
                    <path d="M1398.51,503.985C1395.36,503.985 1392.89,503.028 1391.08,501.114C1389.28,499.201 1388.38,496.564 1388.38,493.206L1388.38,474.194L1395.69,474.194L1395.69,492.773C1395.69,494.723 1396.12,496.131 1396.99,496.998C1397.86,497.864 1399.17,498.298 1400.94,498.298C1402.28,498.298 1403.61,498.009 1404.92,497.431C1406.24,496.853 1407.3,496.131 1408.09,495.264L1408.09,474.194L1415.4,474.194L1415.4,503.444L1408.69,503.444L1408.36,500.573C1405.55,502.848 1402.26,503.985 1398.51,503.985Z" style="fill:white;fill-rule:nonzero;"/>
                    <path d="M1415.67,469.785C1416.47,469.976 1416.69,470.093 1417.11,470.322C1418.81,471.25 1419.91,472.753 1419.97,474.9L1419.97,504.15C1419.95,504.906 1419.89,505.106 1419.75,505.493C1419.23,506.987 1418.13,507.904 1416.12,507.957L1409.4,507.957C1408.25,507.926 1406.99,507.006 1406.26,507.281C1400.05,509.546 1391.47,509.252 1386.59,502.187C1384.57,499.275 1383.82,495.794 1383.81,492.509L1383.81,473.488C1383.83,472.731 1383.89,472.531 1384.03,472.145C1384.55,470.65 1385.65,469.733 1387.66,469.68L1394.97,469.68C1395.88,469.705 1396.16,469.801 1396.69,469.999C1398.72,470.758 1400.19,472.514 1400.26,474.9C1400.26,481.227 1400.04,487.545 1400.26,493.784C1401.73,493.774 1403.52,492.748 1403.52,492.748C1403.52,492.748 1403.53,473.255 1403.53,473.255C1403.59,472.549 1403.64,472.441 1403.75,472.145C1404.27,470.65 1405.37,469.733 1407.38,469.68L1414.69,469.68C1414.86,469.685 1415.04,469.668 1415.67,469.785ZM1408.09,474.194L1408.09,495.264C1404.86,498.741 1397.42,500.066 1395.99,495.225C1395.75,494.41 1395.69,493.582 1395.69,492.773L1395.69,474.194L1388.38,474.194C1388.38,480.583 1388.35,486.969 1388.38,493.363C1388.42,497.083 1389.88,501.294 1393.84,503.077C1399.11,505.454 1404.69,503.509 1408.36,500.573L1408.69,503.444L1415.4,503.444L1415.4,474.194L1408.09,474.194Z" style="fill:rgb(23,66,23);"/>
                    <path d="M1409.18,510.864L1405.93,510.864L1406.2,506.206L1415.35,506.206L1415.35,517.148L1409.18,517.148L1409.18,510.864Z" style="fill:white;fill-rule:nonzero;"/>
                    <path d="M1415.53,501.779C1417.85,502.263 1419.8,504.439 1419.92,506.766C1420.02,513.145 1421.36,521.409 1416.21,521.659C1411.12,521.741 1404.7,522.057 1404.61,516.442L1404.31,514.783C1402.54,513.824 1401.34,511.932 1401.36,510.053C1401.52,506.168 1401.52,501.882 1405.34,501.695C1408.77,501.639 1411.97,501.152 1415.53,501.779ZM1406.2,506.206L1405.93,510.864L1409.18,510.864L1409.18,517.148L1415.35,517.148L1415.35,506.206L1406.2,506.206Z" style="fill:rgb(23,66,23);"/>
                    <rect x="1408.09" y="461.248" width="7.313" height="8.938" style="fill:white;fill-rule:nonzero;"/>
                    <path d="M1415.5,456.806C1417.85,457.253 1419.87,459.472 1419.97,461.821C1420.06,467.331 1421.11,474.481 1416.25,474.697C1412.63,474.75 1408.57,475.585 1405.91,473.763C1402.38,471.346 1403.08,465.122 1403.54,460.151C1403.71,458.26 1405.27,456.825 1407.25,456.736C1410.03,456.695 1412.53,456.328 1415.5,456.806ZM1408.09,461.248L1408.09,470.185L1415.4,470.185L1415.4,461.248L1408.09,461.248Z" style="fill:rgb(23,66,23);"/>
                    <path d="M1438.75,503.985C1435,503.985 1431.71,502.848 1428.89,500.573L1428.57,503.444L1421.85,503.444L1421.85,474.194L1429.16,474.194L1429.16,495.264C1429.96,496.131 1431.01,496.853 1432.33,497.431C1433.65,498.009 1434.98,498.298 1436.31,498.298C1438.08,498.298 1439.4,497.864 1440.27,496.998C1441.13,496.131 1441.57,494.723 1441.57,492.773L1441.57,474.194L1448.88,474.194L1448.88,493.206C1448.88,496.564 1447.98,499.201 1446.17,501.114C1444.37,503.028 1441.89,503.985 1438.75,503.985Z" style="fill:white;fill-rule:nonzero;"/>
                    <path d="M1449.15,469.785C1449.95,469.976 1450.17,470.093 1450.59,470.322C1452.28,471.25 1453.39,472.753 1453.45,474.9C1453.45,481.302 1453.48,487.708 1453.45,494.106C1453.32,504.207 1443.57,511.669 1431.81,507.083C1431.81,507.083 1430.84,507.914 1429.28,507.957L1422.57,507.957C1421.66,507.933 1421.38,507.836 1420.85,507.638C1418.82,506.879 1417.35,505.123 1417.28,502.738L1417.28,473.488C1417.3,472.703 1417.38,472.495 1417.52,472.096C1418.06,470.628 1419.13,469.735 1421.14,469.68L1428.45,469.68C1429.35,469.705 1429.64,469.801 1430.16,469.999C1432.2,470.758 1433.67,472.514 1433.73,474.9L1433.73,493.401C1434.94,493.906 1436.73,493.649 1436.77,493.586C1437,493.173 1436.99,492.596 1437,492.052L1437,473.488C1437.02,472.746 1437.07,472.63 1437.17,472.316C1437.64,470.731 1438.77,469.737 1440.85,469.68L1448.16,469.68C1448.92,469.701 1448.93,469.744 1449.15,469.785ZM1441.57,474.194C1441.57,480.621 1441.79,486.779 1441.56,493.307C1441.31,498.054 1434.15,500.309 1429.32,495.425C1429.32,495.425 1429.16,474.194 1429.16,474.194L1421.85,474.194L1421.85,503.444L1428.57,503.444L1428.89,500.573C1436.46,506.62 1448.83,504.058 1448.88,493.206L1448.88,474.194L1441.57,474.194Z" style="fill:rgb(23,66,23);"/>
                    <path d="M1171.98,587.319C1168.84,587.319 1166.37,586.362 1164.56,584.448C1162.75,582.534 1161.85,579.898 1161.85,576.539L1161.85,557.527L1169.16,557.527L1169.16,576.106C1169.16,578.056 1169.6,579.464 1170.46,580.331C1171.33,581.198 1172.65,581.631 1174.42,581.631C1175.75,581.631 1177.08,581.342 1178.4,580.764C1179.72,580.187 1180.77,579.464 1181.57,578.598L1181.57,557.527L1188.88,557.527L1188.88,586.777L1182.16,586.777L1181.84,583.906C1179.02,586.181 1175.74,587.319 1171.98,587.319Z" style="fill:white;fill-rule:nonzero;"/>
                    <path d="M1189.15,553.119C1189.95,553.309 1190.17,553.426 1190.59,553.656C1192.28,554.583 1193.39,556.086 1193.45,558.233L1193.45,587.483C1193.43,588.239 1193.36,588.44 1193.23,588.826C1192.7,590.32 1191.6,591.237 1189.6,591.29L1182.88,591.29C1181.72,591.259 1180.47,590.339 1179.74,590.615C1173.53,592.88 1164.95,592.586 1160.06,585.52C1158.08,582.659 1157.32,579.24 1157.28,576.027C1157.28,576.027 1157.29,556.589 1157.29,556.589C1157.35,555.882 1157.4,555.774 1157.51,555.478C1158.03,553.984 1159.13,553.066 1161.14,553.014L1168.45,553.014C1170.57,553.071 1170.8,553.533 1171.53,554.081C1172.88,555.089 1173.68,556.333 1173.73,558.233C1173.73,564.561 1173.51,570.897 1173.74,577.117C1175.21,577.107 1177,576.081 1177,576.081C1177,576.081 1177,556.589 1177,556.589C1177.07,555.841 1177.14,555.646 1177.3,555.27C1177.88,553.888 1178.92,553.065 1180.85,553.014L1188.16,553.014C1188.34,553.018 1188.52,553.001 1189.15,553.119ZM1181.57,557.527L1181.57,578.598C1178.33,582.074 1170.89,583.399 1169.47,578.558C1169.23,577.743 1169.17,576.916 1169.16,576.106L1169.16,557.527L1161.85,557.527C1161.85,563.917 1161.82,570.302 1161.85,576.696C1161.9,580.416 1163.35,584.627 1167.31,586.41C1172.59,588.787 1178.16,586.843 1181.84,583.906L1182.16,586.777L1188.88,586.777L1188.88,557.527L1181.57,557.527Z" style="fill:rgb(23,66,23);"/>
                    <path d="M1185.41,554.981C1183.57,554.981 1182.02,554.394 1180.76,553.221C1179.49,552.047 1178.86,550.557 1178.86,548.752C1178.86,546.946 1179.49,545.448 1180.76,544.256C1182.02,543.064 1183.57,542.469 1185.41,542.469C1187.26,542.469 1188.8,543.064 1190.04,544.256C1191.29,545.448 1191.91,546.946 1191.91,548.752C1191.91,550.557 1191.29,552.047 1190.04,553.221C1188.8,554.394 1187.26,554.981 1185.41,554.981ZM1185.41,551.135C1186.06,551.135 1186.62,550.891 1187.09,550.404C1187.56,549.916 1187.8,549.366 1187.8,548.752C1187.8,548.102 1187.56,547.533 1187.09,547.046C1186.62,546.558 1186.06,546.314 1185.41,546.314C1184.76,546.314 1184.19,546.558 1183.71,547.046C1183.22,547.533 1182.98,548.102 1182.98,548.752C1182.98,549.366 1183.22,549.916 1183.71,550.404C1184.19,550.891 1184.76,551.135 1185.41,551.135ZM1205.67,568.794C1205.67,566.699 1205.27,565.155 1204.45,564.162C1203.64,563.169 1202.15,562.673 1199.98,562.673C1198.83,562.673 1197.58,562.799 1196.25,563.052C1194.91,563.305 1193.7,563.648 1192.62,564.081L1192.62,558.719C1193.74,558.213 1195.09,557.798 1196.68,557.473C1198.27,557.148 1199.84,556.985 1201.39,556.985C1205.47,556.985 1208.42,557.852 1210.25,559.585C1212.07,561.319 1212.98,564.045 1212.98,567.764L1212.98,586.777L1205.67,586.777L1205.67,568.794Z" style="fill:white;fill-rule:nonzero;"/>
                    <path d="M1186.7,538.116C1193.03,539.19 1198.05,546.55 1195.94,552.886C1195.94,552.886 1200.2,552.309 1203.26,552.582C1208.74,553.068 1214.91,556.537 1216.74,562.527C1217.35,564.497 1217.55,566.501 1217.55,568.462L1217.55,587.483C1217.53,588.286 1217.47,588.41 1217.36,588.747C1216.86,590.281 1215.78,591.229 1213.7,591.29L1206.39,591.29C1204.35,591.23 1204.19,590.836 1203.49,590.355C1202.04,589.361 1201.16,588.079 1201.1,586.071C1201.1,579.784 1201.62,573.486 1201.06,567.217C1201.06,567.217 1197.77,567.172 1194.85,568.315C1194.85,568.315 1188.21,568.63 1188.05,563.375L1188.05,559.346C1187.93,559.365 1187.81,559.382 1187.69,559.398C1181.1,560.198 1173.25,554.012 1174.41,546.349C1175.26,540.85 1180.6,537.153 1186.7,538.116ZM1204.57,557.191C1200.38,556.617 1196.19,557.124 1192.62,558.719L1192.62,564.081C1194.41,563.38 1194.6,563.406 1195.51,563.204C1199.33,562.355 1204.38,561.986 1205.4,566.211C1205.61,567.074 1205.67,567.94 1205.67,568.794L1205.67,586.777L1212.98,586.777C1212.98,579.418 1214.02,572.085 1212.74,564.714C1212.12,561.09 1208.75,557.803 1204.57,557.191ZM1186.5,542.542C1180.93,541.791 1175.61,549.09 1181.12,553.535C1185.1,556.751 1191.97,554.04 1191.91,548.668C1191.88,545.877 1189.45,542.975 1186.5,542.542ZM1185.83,546.349C1188.32,546.818 1187.8,552.685 1184.34,550.877C1182.29,549.804 1183.06,545.903 1185.83,546.349ZM1185.97,546.985C1184.43,547.057 1183.5,549.124 1183.52,549.153C1184.29,550.648 1187,550.652 1187.32,548.45C1187.32,548.45 1186.19,546.977 1185.97,546.985Z" style="fill:rgb(23,66,23);"/>
                    <path d="M1232.05,587.319C1227.75,587.319 1224.49,586.398 1222.25,584.556C1220.01,582.714 1218.89,580.096 1218.89,576.702L1218.89,575.348C1218.89,574.048 1219.23,572.793 1219.92,571.583C1220.6,570.373 1221.58,568.992 1222.84,567.439C1223.57,566.537 1224.11,565.814 1224.47,565.273C1224.83,564.731 1225.01,564.244 1225.01,563.81C1225.01,563.124 1224.72,562.781 1224.14,562.781C1223.71,562.781 1223.26,562.98 1222.79,563.377L1222.79,565.598L1218.18,565.598L1218.18,557.527L1223.01,557.527L1223.01,559.044C1223.62,558.538 1224.27,558.159 1224.95,557.906C1225.64,557.653 1226.45,557.527 1227.39,557.527C1230.28,557.527 1231.73,559.007 1231.73,561.969C1231.73,563.16 1231.49,564.253 1231.02,565.246C1230.55,566.239 1229.83,567.457 1228.86,568.902C1227.95,570.202 1227.28,571.321 1226.85,572.26C1226.42,573.199 1226.2,574.192 1226.2,575.239L1226.2,576.431C1226.2,578.128 1226.7,579.419 1227.69,580.304C1228.68,581.189 1230.14,581.631 1232.05,581.631C1236.02,581.631 1238.01,579.826 1238.01,576.214L1238.01,572.802C1238.01,571.43 1237.77,570.455 1237.31,569.877C1236.84,569.299 1236.01,569.01 1234.81,569.01L1233.3,569.01L1233.62,563.919L1234.6,563.919C1235.79,563.919 1236.65,563.612 1237.2,562.998C1237.74,562.384 1238.01,561.409 1238.01,560.073L1238.01,556.985L1245.32,556.985L1245.32,559.91C1245.32,561.644 1245.05,563.016 1244.51,564.027C1243.97,565.038 1242.99,565.851 1241.58,566.464C1243.03,567.151 1244.01,567.999 1244.54,569.01C1245.06,570.021 1245.32,571.376 1245.32,573.073L1245.32,575.889C1245.32,579.428 1244.14,582.218 1241.77,584.258C1239.41,586.298 1236.17,587.319 1232.05,587.319Z" style="fill:white;fill-rule:nonzero;"/>
                    <path d="M1245.59,552.577C1246.39,552.768 1246.61,552.884 1247.03,553.114C1250.24,554.873 1250.12,559.264 1249.81,562.414C1249.64,564.098 1249.19,565.725 1248.33,567.101C1248.33,567.101 1249.85,570.773 1249.89,573.578C1249.91,577.827 1249.59,582.102 1247.39,585.28C1244.09,590.058 1237.76,592.072 1231.39,591.804C1223.82,591.485 1214.48,586.357 1214.32,576.2C1214.31,573.653 1214.63,571.176 1215.76,569.092C1215.76,569.092 1213.67,566.957 1213.61,564.892L1213.61,556.821C1213.63,556.065 1213.7,555.864 1213.84,555.478C1214.36,553.984 1215.46,553.067 1217.47,553.014L1222.29,553.014C1224.96,553.085 1225.27,553.036 1226.43,553.016C1228.87,552.974 1231.59,553.703 1233.5,555.592C1233.5,555.592 1234.47,552.546 1237.29,552.472L1244.61,552.472C1244.78,552.477 1244.96,552.459 1245.59,552.577ZM1238.01,556.985C1238.01,560.082 1238.44,563.887 1234.6,563.919L1233.62,563.919L1233.3,569.01C1235.57,569.01 1237.91,569.24 1238.01,572.549C1238.08,577.147 1237.47,581.889 1231.53,581.619C1227.59,581.441 1223.8,576.436 1229.04,568.634C1229.2,568.377 1229.37,568.12 1229.54,567.861C1231.27,565.128 1233.51,561.221 1230.5,558.503C1228.42,556.619 1225.12,557.336 1223.01,559.044L1223.01,557.527L1218.18,557.527L1218.18,565.598L1222.79,565.598L1222.79,563.377C1222.9,563.285 1223.02,563.197 1223.14,563.116C1223.22,563.062 1223.31,563.013 1223.39,562.97C1223.51,562.911 1223.64,562.862 1223.77,562.828C1224.62,562.614 1225.2,564.279 1224.08,565.833C1221.73,569.071 1218.86,571.668 1218.89,576.86C1218.93,579.821 1220.03,583.019 1222.79,584.971C1231.73,591.299 1245.16,586.352 1245.32,576.055C1245.34,572.307 1245.39,568.303 1241.58,566.464C1244.04,565.372 1245.31,562.8 1245.32,559.91L1245.32,556.985L1238.01,556.985ZM1231.93,573.069C1230.89,574.759 1230.77,577.094 1230.77,577.094C1232.07,577.206 1233.42,577.177 1233.44,575.49L1233.29,573.467C1233.29,573.467 1231.95,573.041 1231.93,573.069Z" style="fill:rgb(23,66,23);"/>
                    <path d="M1239.09,594.198L1235.84,594.198L1236.11,589.539L1245.27,589.539L1245.27,600.481L1239.09,600.481L1239.09,594.198Z" style="fill:white;fill-rule:nonzero;"/>
                    <path d="M1245.44,585.112C1247.77,585.596 1249.72,587.773 1249.83,590.1C1249.94,596.469 1251.46,604.733 1246.13,604.992C1241.04,605.074 1234.62,605.391 1234.52,599.775L1234.22,598.117C1232.45,597.157 1231.26,595.266 1231.27,593.386C1231.43,589.501 1231.44,585.215 1235.25,585.028C1238.69,584.973 1241.9,584.487 1245.44,585.112ZM1236.11,589.539L1235.84,594.198L1239.09,594.198L1239.09,600.481L1245.27,600.481L1245.27,589.539L1236.11,589.539Z" style="fill:rgb(23,66,23);"/>
                    <path d="M1265.69,587.319C1261.28,587.319 1257.86,586.28 1255.42,584.204C1252.99,582.128 1251.77,579.067 1251.77,575.023L1251.77,557.527L1259.08,557.527L1259.08,575.131C1259.08,577.334 1259.63,578.968 1260.73,580.033C1261.83,581.098 1263.49,581.631 1265.69,581.631C1267.89,581.631 1269.54,581.098 1270.64,580.033C1271.75,578.968 1272.3,577.334 1272.3,575.131L1272.3,548.86L1279.61,548.86L1279.61,575.023C1279.61,579.067 1278.39,582.128 1275.95,584.204C1273.52,586.28 1270.09,587.319 1265.69,587.319Z" style="fill:white;fill-rule:nonzero;"/>
                    <path d="M1279.98,544.475C1280.86,544.707 1281.1,544.848 1281.55,545.125C1283.12,546.087 1284.11,547.451 1284.18,549.566C1284.18,558.364 1284.22,567.168 1284.18,575.959C1284.04,585.449 1276.31,592.146 1265.45,591.818C1258.77,591.616 1250.8,588.125 1248.22,580.766C1247.48,578.65 1247.21,576.469 1247.2,574.327L1247.2,556.821C1247.22,555.968 1247.31,555.746 1247.48,555.322C1248.05,553.915 1249.05,553.073 1251.05,553.014L1258.37,553.014C1259.25,553.04 1259.5,553.127 1259.99,553.299C1262.06,554.029 1263.57,555.765 1263.65,558.233C1263.65,564.146 1263.61,570.053 1263.65,575.973C1263.66,576.57 1262.51,577.637 1266.07,577.037C1267.2,576.846 1267.72,575.741 1267.73,574.408L1267.73,548.154C1267.75,547.301 1267.84,547.08 1268.01,546.655C1268.57,545.249 1269.57,544.406 1271.58,544.347L1278.89,544.347C1279.08,544.353 1279.28,544.332 1279.98,544.475ZM1272.3,548.86L1272.3,575.131C1272.29,576.337 1272.23,576.603 1272.08,577.286C1271.06,581.925 1263.35,583.498 1260.3,579.55C1259.29,578.237 1259.09,576.582 1259.08,575.131L1259.08,557.527L1251.77,557.527C1251.77,563.422 1251.74,569.313 1251.77,575.212C1251.82,578.771 1253,582.643 1256.38,584.934C1261.46,588.37 1267.77,588.085 1272.65,586.162C1277,584.443 1279.59,580.055 1279.61,575.023L1279.61,548.86L1272.3,548.86Z" style="fill:rgb(23,66,23);"/>
                    <path d="M1286.06,557.527L1293.37,557.527L1293.37,566.41L1300.63,566.41C1302.43,566.41 1303.7,566.013 1304.44,565.219C1305.18,564.424 1305.56,563.178 1305.56,561.481L1305.56,557.527L1312.87,557.527L1312.87,561.21C1312.87,565.291 1311.48,567.891 1308.7,569.01C1310.14,569.588 1311.16,570.446 1311.76,571.583C1312.35,572.721 1312.65,574.156 1312.65,575.889L1312.65,586.777L1305.34,586.777L1305.34,576.702C1305.34,574.86 1304.99,573.578 1304.28,572.856C1303.58,572.134 1302.31,571.773 1300.46,571.773L1293.37,571.773L1293.37,586.777L1286.06,586.777L1286.06,557.527Z" style="fill:white;fill-rule:nonzero;"/>
                    <path d="M1313.14,553.119C1313.94,553.309 1314.15,553.426 1314.58,553.656C1318.05,555.559 1317.7,560.499 1317.33,564C1317.12,565.998 1316.53,567.908 1315.51,569.524C1315.51,569.524 1317.2,573.534 1317.22,576.583L1317.22,587.483C1317.2,588.268 1317.12,588.476 1316.98,588.874C1316.44,590.343 1315.38,591.235 1313.37,591.29L1306.05,591.29C1303.93,591.233 1303.7,590.771 1302.97,590.223C1301.62,589.215 1300.82,587.971 1300.77,586.071L1300.77,576.286L1297.94,576.286L1297.94,587.483C1297.92,588.224 1297.86,588.34 1297.77,588.654C1297.3,590.239 1296.17,591.233 1294.08,591.29L1286.77,591.29C1284.65,591.233 1284.42,590.771 1283.69,590.223C1282.33,589.215 1281.54,587.971 1281.49,586.071L1281.49,556.821C1281.51,556.079 1281.56,555.964 1281.65,555.65C1282.13,554.065 1283.25,553.071 1285.34,553.014L1292.65,553.014C1293.55,553.038 1293.84,553.135 1294.37,553.332C1296.4,554.092 1297.87,555.848 1297.94,558.233L1297.94,561.897C1299.14,561.897 1300.88,561.81 1300.88,561.81C1300.97,561.478 1300.98,561.116 1300.99,560.76L1300.99,556.821C1301.01,556.079 1301.06,555.964 1301.15,555.65C1301.63,554.065 1302.75,553.071 1304.84,553.014L1312.15,553.014C1312.33,553.018 1312.5,553.001 1313.14,553.119ZM1305.56,557.527C1305.56,560.721 1305.97,563.822 1304.3,565.363C1303.37,566.224 1301.94,566.401 1300.63,566.41L1293.37,566.41L1293.37,557.527L1286.06,557.527L1286.06,586.777L1293.37,586.777L1293.37,571.773C1298.75,571.773 1305.29,569.194 1305.34,576.702L1305.34,586.777L1312.65,586.777C1312.65,579.991 1314.93,571.564 1308.7,569.01C1311.12,568.006 1310.65,568.149 1311.62,566.577C1312.57,565.036 1312.86,563.115 1312.87,561.21L1312.87,557.527L1305.56,557.527Z" style="fill:rgb(23,66,23);"/>
                    <path d="M1330.09,587.319C1327.82,587.319 1325.62,587.111 1323.51,586.696C1321.4,586.28 1319.57,585.73 1318.01,585.044L1318.01,569.66L1330.42,569.66L1330.74,575.023L1324.95,575.023L1324.95,580.927C1325.6,581.144 1326.41,581.315 1327.38,581.441C1328.36,581.568 1329.28,581.631 1330.15,581.631C1332.13,581.631 1333.7,581.324 1334.86,580.71C1336.02,580.096 1336.85,579.112 1337.38,577.758C1337.9,576.404 1338.16,574.571 1338.16,572.26C1338.16,569.769 1337.85,567.837 1337.21,566.464C1336.58,565.092 1335.56,564.117 1334.15,563.539C1332.75,562.962 1330.8,562.673 1328.31,562.673C1324.84,562.673 1321.53,563.16 1318.39,564.135L1318.39,558.664C1319.98,558.123 1321.82,557.707 1323.92,557.419C1326.01,557.13 1328.07,556.985 1330.09,556.985C1335.26,556.985 1339.05,558.267 1341.47,560.831C1343.89,563.395 1345.1,567.205 1345.1,572.26C1345.1,577.207 1343.89,580.954 1341.47,583.5C1339.05,586.046 1335.26,587.319 1330.09,587.319Z" style="fill:white;fill-rule:nonzero;"/>
                    <path d="M1334.17,552.839C1339.28,553.704 1344.35,556.536 1347.08,561.489C1352.95,572.144 1349.66,585.639 1340.82,589.874C1333.78,593.246 1324.14,592.776 1316.52,589.026C1314.7,588.133 1313.5,586.542 1313.44,584.338L1313.44,568.954C1313.49,567.131 1314.42,565.719 1314.42,565.719C1314.05,564.995 1313.85,564.543 1313.82,563.429L1313.82,557.958C1313.96,552.937 1322.28,552.644 1328.12,552.489C1330.12,552.436 1332.14,552.516 1334.17,552.839ZM1333.71,557.226C1328.47,556.502 1323.25,557.066 1318.54,558.614C1318.54,558.614 1318.39,564.135 1318.39,564.135C1320.25,563.569 1320.78,563.471 1322,563.244C1327.6,562.197 1335,561.371 1337.27,566.595C1338.44,569.267 1338.32,572.276 1338.03,574.84C1337.48,579.874 1332.07,583.236 1324.95,580.927L1324.95,575.023L1330.74,575.023L1330.42,569.66L1318.01,569.66L1318.01,585.044C1322.46,586.985 1327.3,587.527 1331.74,587.273C1336.27,587.014 1340.72,585.282 1342.97,581.512C1345.35,577.509 1345.68,572.316 1344.63,567.292C1343.65,562.609 1339.91,558.332 1334.33,557.324C1334.12,557.289 1333.91,557.256 1333.71,557.226Z" style="fill:rgb(23,66,23);"/>
                    <path d="M1367.09,587.319C1363.33,587.319 1360.05,586.181 1357.23,583.906L1356.9,586.777L1350.19,586.777L1350.19,557.527L1357.5,557.527L1357.5,578.598C1358.3,579.464 1359.35,580.187 1360.67,580.764C1361.99,581.342 1363.32,581.631 1364.65,581.631C1366.42,581.631 1367.74,581.198 1368.61,580.331C1369.47,579.464 1369.9,578.056 1369.9,576.106L1369.9,557.527L1377.22,557.527L1377.22,576.539C1377.22,579.898 1376.32,582.534 1374.51,584.448C1372.7,586.362 1370.23,587.319 1367.09,587.319Z" style="fill:white;fill-rule:nonzero;"/>
                    <path d="M1377.49,553.118C1378.29,553.309 1378.51,553.426 1378.92,553.656C1380.62,554.583 1381.73,556.086 1381.79,558.233C1381.79,564.635 1381.81,571.042 1381.79,577.44C1381.66,587.493 1372.08,595.071 1360.15,590.416C1360.15,590.416 1359.18,591.248 1357.62,591.29L1350.9,591.29C1350,591.266 1349.72,591.169 1349.19,590.972C1347.15,590.212 1345.68,588.456 1345.62,586.071L1345.62,556.821C1345.64,556.036 1345.71,555.828 1345.86,555.429C1346.4,553.961 1347.46,553.069 1349.47,553.014L1356.79,553.014C1357.69,553.038 1357.97,553.135 1358.5,553.332C1360.54,554.092 1362,555.848 1362.07,558.233L1362.07,576.734C1363.28,577.241 1365.07,576.982 1365.11,576.919C1365.34,576.507 1365.33,575.929 1365.34,575.385L1365.34,556.821C1365.36,556.079 1365.41,555.964 1365.5,555.65C1365.98,554.065 1367.1,553.071 1369.19,553.014L1376.5,553.014C1376.67,553.018 1376.85,553.001 1377.49,553.118ZM1369.9,557.527C1369.9,563.954 1370.13,570.112 1369.89,576.64C1369.65,581.387 1362.49,583.642 1357.65,578.759C1357.65,578.759 1357.5,557.527 1357.5,557.527L1350.19,557.527L1350.19,586.777L1356.9,586.777L1357.23,583.906C1364.8,589.953 1377.17,587.391 1377.22,576.539L1377.22,557.527L1369.9,557.527Z" style="fill:rgb(23,66,23);"/>
                    <path d="M1403.43,577.46C1403.43,575.619 1403.74,574.093 1404.36,572.883C1404.97,571.673 1406.05,570.834 1407.61,570.364L1402.08,568.902L1402.08,561.914C1403.78,560.506 1405.86,559.332 1408.34,558.394C1410.81,557.455 1413.53,556.985 1416.49,556.985C1421.11,556.985 1424.59,557.915 1426.91,559.775C1429.24,561.635 1430.41,564.749 1430.41,569.119L1430.41,586.777L1423.1,586.777L1423.1,568.956C1423.1,566.681 1422.56,565.065 1421.5,564.108C1420.43,563.151 1418.64,562.673 1416.11,562.673C1414.56,562.673 1413.09,562.907 1411.72,563.377C1410.35,563.846 1409.23,564.442 1408.36,565.164L1408.36,565.923L1414.38,567.548L1414.38,571.989C1412.97,572.351 1412.01,572.937 1411.51,573.75C1411,574.562 1410.75,575.817 1410.75,577.514L1410.75,586.777L1403.43,586.777L1403.43,577.46Z" style="fill:white;fill-rule:nonzero;"/>
                    <path d="M1420.9,552.866C1425.98,553.736 1431.15,556.508 1433.45,561.701C1434.62,564.334 1434.97,567.136 1434.98,569.816L1434.98,587.483C1434.96,588.239 1434.89,588.44 1434.76,588.826C1434.23,590.32 1433.13,591.237 1431.12,591.29L1423.81,591.29C1422.94,591.267 1422.66,591.176 1422.15,590.99C1420.09,590.247 1418.59,588.463 1418.53,586.071C1418.53,586.071 1418.44,574.662 1418.44,574.662C1418.44,574.662 1415.54,576.262 1415.42,576.828C1415.34,577.283 1415.32,577.756 1415.32,578.23L1415.32,587.483C1415.3,588.239 1415.23,588.44 1415.09,588.826C1414.57,590.32 1413.47,591.237 1411.46,591.29L1404.15,591.29C1402.08,591.236 1401.87,590.8 1401.15,590.284C1397.65,587.77 1398.84,581.829 1398.87,576.537C1398.9,574.323 1399.19,571.906 1399.19,571.906C1398.15,570.874 1397.55,569.535 1397.51,568.196L1397.51,561.208C1397.63,556.578 1403.73,554.552 1408.99,553.259C1412.76,552.334 1416.81,552.202 1420.9,552.866ZM1420.49,557.258C1413.69,556.276 1406.95,557.921 1402.08,561.914L1402.08,568.902L1407.61,570.364C1406.97,570.562 1406.93,570.595 1406.65,570.726C1404.33,571.814 1403.45,574.64 1403.43,577.46L1403.43,586.777L1410.75,586.777C1410.75,580.38 1409.22,573.35 1414.38,571.989L1414.38,567.548L1408.36,565.923L1408.36,565.164C1411.1,562.921 1415.13,562.129 1418.92,562.928C1421.38,563.449 1423.08,566.213 1423.1,568.956L1423.1,586.777L1430.41,586.777C1430.41,579.749 1431.36,572.608 1430.13,565.73C1429.38,561.511 1425.24,557.986 1420.49,557.258Z" style="fill:rgb(23,66,23);"/>
                    <path d="M1446.12,587.319C1443.08,587.319 1440.63,586.578 1438.75,585.098C1436.87,583.617 1435.93,581.288 1435.93,578.11C1435.93,575.185 1436.93,572.937 1438.91,571.366C1440.9,569.796 1443.75,569.01 1447.47,569.01L1455.76,569.01L1455.76,567.602C1455.76,565.796 1455.25,564.523 1454.24,563.783C1453.23,563.043 1451.44,562.673 1448.88,562.673C1445.49,562.673 1442.25,563.16 1439.18,564.135L1439.18,558.664C1440.74,558.159 1442.49,557.753 1444.44,557.446C1446.39,557.139 1448.27,556.985 1450.07,556.985C1454.44,556.985 1457.7,557.915 1459.85,559.775C1462,561.635 1463.07,564.496 1463.07,568.36L1463.07,586.777L1455.76,586.777L1455.76,574.373L1447.9,574.373C1446.24,574.373 1444.99,574.662 1444.14,575.239C1443.29,575.817 1442.87,576.774 1442.87,578.11C1442.87,579.446 1443.26,580.367 1444.03,580.873C1444.81,581.378 1446.15,581.631 1448.07,581.631C1449.73,581.631 1450.97,581.487 1451.81,581.198L1451.81,586.56C1450.18,587.066 1448.28,587.319 1446.12,587.319Z" style="fill:white;fill-rule:nonzero;"/>
                    <path d="M1454.08,552.838C1458.69,553.633 1463.36,556.153 1465.72,560.583C1467.15,563.258 1467.63,566.206 1467.64,569.057L1467.64,587.483C1467.62,588.239 1467.55,588.44 1467.42,588.826C1466.89,590.32 1465.8,591.237 1463.79,591.29L1456.47,591.29C1454.83,591.247 1454.81,590.711 1452.36,591.265C1451.31,591.503 1450.23,591.657 1449.13,591.744C1443.41,592.196 1436.43,590.98 1433.01,584.56C1429.7,578.374 1431.3,570.82 1436.28,567.267C1436.28,567.267 1434.66,565.188 1434.61,563.429L1434.61,557.958C1434.63,557.266 1434.68,557.158 1434.76,556.862C1435.62,553.753 1440.51,553.26 1444.65,552.762C1447.72,552.393 1450.89,552.319 1454.08,552.838ZM1453.67,557.231C1448.7,556.515 1443.83,557.196 1439.33,558.617C1439.33,558.617 1439.18,564.135 1439.18,564.135C1441,563.569 1441.52,563.471 1442.71,563.244C1448.16,562.203 1455.7,560.877 1455.76,567.602L1455.76,569.01C1448.73,569.01 1440.42,567.197 1436.93,573.716C1435,577.315 1435.27,582.917 1439.48,585.618C1443.31,588.071 1448.05,587.704 1451.81,586.56L1451.81,581.198C1449.06,582.122 1445.04,582.02 1443.64,580.545C1441.29,578.089 1443.73,574.396 1447.9,574.373L1455.76,574.373L1455.76,586.777L1463.07,586.777C1463.07,580.578 1463.1,574.383 1463.07,568.18C1463.07,568.003 1463.06,567.825 1463.06,567.648C1463.05,567.362 1463.03,567.076 1463.01,566.79C1462.73,563.54 1460.96,559.858 1457.51,558.304C1456.27,557.745 1454.97,557.431 1453.67,557.231Z" style="fill:rgb(23,66,23);"/>
                    <path d="M1486.42,587.319C1482.66,587.319 1479.38,586.181 1476.56,583.906L1476.23,586.777L1469.52,586.777L1469.52,557.527L1476.83,557.527L1476.83,578.598C1477.62,579.464 1478.68,580.187 1480,580.764C1481.32,581.342 1482.64,581.631 1483.98,581.631C1485.75,581.631 1487.07,581.198 1487.93,580.331C1488.8,579.464 1489.23,578.056 1489.23,576.106L1489.23,557.527L1496.55,557.527L1496.55,576.539C1496.55,579.898 1495.64,582.534 1493.84,584.448C1492.03,586.362 1489.56,587.319 1486.42,587.319Z" style="fill:white;fill-rule:nonzero;"/>
                    <path d="M1496.82,553.119C1497.62,553.309 1497.83,553.426 1498.25,553.656C1499.95,554.583 1501.06,556.086 1501.12,558.233C1501.12,564.635 1501.14,571.041 1501.12,577.439C1500.99,587.532 1491.41,595.07 1479.48,590.416C1479.48,590.416 1478.02,591.261 1476.95,591.29L1470.23,591.29C1469.33,591.266 1469.05,591.169 1468.52,590.972C1466.48,590.212 1465.01,588.456 1464.95,586.071L1464.95,556.821C1464.97,556.079 1465.02,555.964 1465.12,555.65C1465.59,554.065 1466.72,553.071 1468.8,553.014L1476.12,553.014C1477.02,553.038 1477.3,553.135 1477.83,553.332C1479.86,554.092 1481.33,555.848 1481.4,558.233L1481.4,576.734C1482.61,577.24 1484.4,576.982 1484.44,576.919C1484.67,576.506 1484.66,575.929 1484.66,575.385L1484.66,556.821C1484.69,556.036 1484.76,555.828 1484.9,555.429C1485.44,553.961 1486.51,553.068 1488.52,553.014L1495.83,553.014C1496.59,553.034 1496.59,553.077 1496.82,553.119ZM1489.23,557.527C1489.23,563.954 1489.46,570.112 1489.22,576.64C1488.98,581.387 1481.82,583.642 1476.98,578.759C1476.98,578.759 1476.83,557.527 1476.83,557.527L1469.52,557.527L1469.52,586.777L1476.23,586.777L1476.56,583.906C1484.12,589.953 1496.5,587.391 1496.55,576.539L1496.55,557.527L1489.23,557.527Z" style="fill:rgb(23,66,23);"/>
                    <path d="M1503.26,577.46C1503.26,575.619 1503.57,574.093 1504.18,572.883C1504.8,571.673 1505.88,570.834 1507.43,570.364L1501.91,568.902L1501.91,561.914C1503.61,560.506 1505.69,559.332 1508.16,558.394C1510.64,557.455 1513.36,556.985 1516.32,556.985C1520.94,556.985 1524.41,557.915 1526.74,559.775C1529.07,561.635 1530.24,564.749 1530.24,569.119L1530.24,586.777L1522.93,586.777L1522.93,568.956C1522.93,566.681 1522.39,565.065 1521.33,564.108C1520.26,563.151 1518.47,562.673 1515.94,562.673C1514.38,562.673 1512.92,562.907 1511.55,563.377C1510.18,563.846 1509.06,564.442 1508.19,565.164L1508.19,565.923L1514.2,567.548L1514.2,571.989C1512.8,572.351 1511.84,572.937 1511.33,573.75C1510.83,574.562 1510.58,575.817 1510.58,577.514L1510.58,586.777L1503.26,586.777L1503.26,577.46Z" style="fill:white;fill-rule:nonzero;"/>
                    <path d="M1520.74,552.866C1525.81,553.734 1530.98,556.503 1533.28,561.7C1534.44,564.333 1534.8,567.134 1534.81,569.816L1534.81,587.483C1534.79,588.239 1534.72,588.44 1534.58,588.826C1534.06,590.32 1532.96,591.237 1530.95,591.29L1523.64,591.29C1521.57,591.236 1521.36,590.8 1520.64,590.284C1519.24,589.279 1518.41,587.98 1518.36,586.071C1518.36,586.071 1518.27,574.662 1518.27,574.662C1518.27,574.662 1515.37,576.259 1515.25,576.83C1515.17,577.284 1515.15,577.757 1515.14,578.23L1515.14,587.483C1515.12,588.239 1515.06,588.44 1514.92,588.826C1514.4,590.32 1513.3,591.237 1511.29,591.29L1503.98,591.29C1501.91,591.236 1501.7,590.8 1500.98,590.284C1497.48,587.77 1498.67,581.829 1498.69,576.537C1498.73,574.325 1499.02,571.906 1499.02,571.906C1497.98,570.874 1497.38,569.535 1497.34,568.196L1497.34,561.208C1497.46,556.578 1503.56,554.552 1508.82,553.259C1512.58,552.334 1516.64,552.202 1520.74,552.866ZM1520.32,557.258C1513.52,556.276 1506.78,557.921 1501.91,561.914L1501.91,568.902L1507.43,570.364C1506.8,570.562 1506.76,570.595 1506.48,570.726C1504.16,571.814 1503.28,574.64 1503.26,577.46L1503.26,586.777L1510.58,586.777C1510.58,580.38 1509.05,573.35 1514.2,571.989L1514.2,567.548L1508.19,565.923L1508.19,565.164C1510.92,562.921 1514.96,562.129 1518.75,562.928C1521.21,563.449 1522.9,566.213 1522.93,568.956L1522.93,586.777L1530.24,586.777C1530.24,579.749 1531.19,572.608 1529.96,565.73C1529.21,561.511 1525.07,557.986 1520.32,557.258Z" style="fill:rgb(23,66,23);"/>
                    <path d="M1545.95,587.319C1542.91,587.319 1540.46,586.578 1538.58,585.098C1536.7,583.617 1535.76,581.288 1535.76,578.11C1535.76,575.185 1536.76,572.937 1538.74,571.366C1540.73,569.796 1543.58,569.01 1547.3,569.01L1555.59,569.01L1555.59,567.602C1555.59,565.796 1555.08,564.523 1554.07,563.783C1553.06,563.043 1551.27,562.673 1548.71,562.673C1545.32,562.673 1542.08,563.16 1539.01,564.135L1539.01,558.664C1540.57,558.159 1542.32,557.753 1544.27,557.446C1546.22,557.139 1548.1,556.985 1549.9,556.985C1554.27,556.985 1557.53,557.915 1559.68,559.775C1561.83,561.635 1562.9,564.496 1562.9,568.36L1562.9,586.777L1555.59,586.777L1555.59,574.373L1547.73,574.373C1546.07,574.373 1544.82,574.662 1543.97,575.239C1543.12,575.817 1542.7,576.774 1542.7,578.11C1542.7,579.446 1543.09,580.367 1543.86,580.873C1544.64,581.378 1545.98,581.631 1547.9,581.631C1549.56,581.631 1550.8,581.487 1551.63,581.198L1551.63,586.56C1550.01,587.066 1548.11,587.319 1545.95,587.319Z" style="fill:white;fill-rule:nonzero;"/>
                    <path d="M1553.9,552.838C1558.52,553.633 1563.19,556.155 1565.55,560.582C1566.98,563.258 1567.46,566.206 1567.47,569.057L1567.47,587.483C1567.45,588.239 1567.38,588.44 1567.25,588.826C1566.72,590.32 1565.62,591.237 1563.62,591.29L1556.3,591.29C1554.62,591.246 1554.47,590.723 1552.4,591.217C1551.35,591.465 1550.28,591.63 1549.19,591.725C1544.12,592.17 1538.32,591.304 1534.45,586.893C1529.18,580.889 1530.44,571.309 1536.11,567.267C1536.11,567.267 1534.49,565.189 1534.44,563.429L1534.44,557.958C1534.46,557.266 1534.51,557.158 1534.59,556.862C1535.43,553.816 1540.12,553.325 1544.08,552.812C1547.27,552.397 1550.58,552.296 1553.9,552.838ZM1553.5,557.231C1548.53,556.515 1543.66,557.196 1539.16,558.617C1539.16,558.617 1539.01,564.135 1539.01,564.135C1540.83,563.569 1541.35,563.471 1542.54,563.244C1547.99,562.203 1555.53,560.877 1555.59,567.602L1555.59,569.01C1548.56,569.01 1540.25,567.197 1536.76,573.716C1534.83,577.315 1535.1,582.917 1539.31,585.618C1543.14,588.071 1547.88,587.704 1551.63,586.56L1551.63,581.198C1548.89,582.122 1544.87,582.02 1543.47,580.545C1541.12,578.089 1543.56,574.396 1547.73,574.373L1555.59,574.373L1555.59,586.777L1562.9,586.777C1562.9,580.578 1562.93,574.383 1562.9,568.18C1562.9,568.003 1562.89,567.825 1562.89,567.648C1562.88,567.362 1562.86,567.076 1562.84,566.79C1562.56,563.54 1560.79,559.858 1557.34,558.304C1556.1,557.745 1554.8,557.431 1553.5,557.231Z" style="fill:rgb(23,66,23);"/>
                    <rect x="1555.59" y="544.581" width="7.313" height="8.938" style="fill:white;fill-rule:nonzero;"/>
                    <path d="M1563,540.14C1565.35,540.587 1567.36,542.806 1567.47,545.154C1567.55,550.664 1568.6,557.814 1563.75,558.03C1560.13,558.083 1556.06,558.918 1553.4,557.097C1549.88,554.679 1550.58,548.456 1551.04,543.484C1551.21,541.593 1552.76,540.158 1554.74,540.07C1557.53,540.029 1560.03,539.661 1563,540.14ZM1555.59,544.581L1555.59,553.519L1562.9,553.519L1562.9,544.581L1555.59,544.581Z" style="fill:rgb(23,66,23);"/>
                    <path d="M1580.34,587.319C1578.07,587.319 1575.87,587.111 1573.76,586.696C1571.65,586.28 1569.82,585.73 1568.26,585.044L1568.26,569.66L1580.67,569.66L1580.99,575.023L1575.2,575.023L1575.2,580.927C1575.85,581.144 1576.66,581.315 1577.63,581.441C1578.61,581.568 1579.53,581.631 1580.4,581.631C1582.38,581.631 1583.95,581.324 1585.11,580.71C1586.27,580.096 1587.1,579.112 1587.63,577.758C1588.15,576.404 1588.41,574.571 1588.41,572.26C1588.41,569.769 1588.1,567.837 1587.47,566.464C1586.83,565.092 1585.81,564.117 1584.4,563.539C1583,562.962 1581.05,562.673 1578.56,562.673C1575.09,562.673 1571.78,563.16 1568.64,564.135L1568.64,558.664C1570.23,558.123 1572.07,557.707 1574.17,557.419C1576.26,557.13 1578.32,556.985 1580.34,556.985C1585.51,556.985 1589.3,558.267 1591.72,560.831C1594.14,563.395 1595.35,567.205 1595.35,572.26C1595.35,577.207 1594.14,580.954 1591.72,583.5C1589.3,586.046 1585.51,587.319 1580.34,587.319Z" style="fill:white;fill-rule:nonzero;"/>
                    <path d="M1584.42,552.839C1589.65,553.726 1594.86,556.683 1597.56,561.927C1603.2,572.871 1599.58,586.399 1590.22,590.252C1583.29,593.102 1574.49,592.328 1567.16,589.203C1567.16,589.203 1563.77,587.397 1563.69,584.338L1563.69,568.954C1563.74,567.131 1564.67,565.719 1564.67,565.719C1564.3,564.995 1564.1,564.543 1564.07,563.429L1564.07,557.958C1564.2,553.392 1571.03,553.001 1575.83,552.623C1578.64,552.401 1581.52,552.379 1584.42,552.839ZM1583.96,557.226C1578.72,556.502 1573.5,557.066 1568.79,558.614C1568.79,558.614 1568.64,564.135 1568.64,564.135C1570.5,563.569 1571.03,563.471 1572.25,563.244C1577.85,562.197 1585.25,561.371 1587.52,566.595C1588.69,569.267 1588.57,572.276 1588.28,574.84C1587.73,579.874 1582.32,583.236 1575.2,580.927L1575.2,575.023L1580.99,575.023L1580.67,569.66L1568.26,569.66L1568.26,585.044C1572.71,586.985 1577.55,587.527 1581.99,587.273C1586.52,587.014 1590.97,585.282 1593.22,581.512C1595.6,577.509 1595.93,572.316 1594.88,567.292C1593.9,562.609 1590.16,558.332 1584.58,557.324C1584.37,557.289 1584.16,557.256 1583.96,557.226Z" style="fill:rgb(23,66,23);"/>
                    <path d="M1617.34,587.319C1613.58,587.319 1610.3,586.181 1607.48,583.906L1607.15,586.777L1600.44,586.777L1600.44,557.527L1607.75,557.527L1607.75,578.598C1608.55,579.464 1609.6,580.187 1610.92,580.764C1612.24,581.342 1613.57,581.631 1614.9,581.631C1616.67,581.631 1617.99,581.198 1618.86,580.331C1619.72,579.464 1620.15,578.056 1620.15,576.106L1620.15,557.527L1627.47,557.527L1627.47,576.539C1627.47,579.898 1626.57,582.534 1624.76,584.448C1622.95,586.362 1620.48,587.319 1617.34,587.319Z" style="fill:white;fill-rule:nonzero;"/>
                    <path d="M1627.74,553.119C1628.54,553.309 1628.76,553.426 1629.17,553.656C1630.87,554.583 1631.98,556.086 1632.04,558.233C1632.04,564.635 1632.06,571.041 1632.04,577.44C1631.9,587.515 1622.37,595.085 1610.4,590.416C1610.4,590.416 1608.94,591.261 1607.87,591.29L1601.15,591.29C1600.25,591.266 1599.97,591.169 1599.44,590.972C1597.4,590.212 1595.93,588.456 1595.87,586.071L1595.87,556.821C1595.89,556.079 1595.94,555.964 1596.04,555.65C1596.51,554.065 1597.64,553.071 1599.72,553.014L1607.04,553.014C1609.16,553.071 1609.38,553.533 1610.12,554.081C1611.47,555.089 1612.27,556.333 1612.32,558.233L1612.32,576.734C1613.53,577.241 1615.32,576.981 1615.36,576.919C1615.59,576.505 1615.58,575.928 1615.59,575.385L1615.59,556.821C1615.61,556.079 1615.66,555.964 1615.75,555.65C1616.23,554.065 1617.35,553.071 1619.44,553.014L1626.75,553.014C1627.51,553.034 1627.51,553.077 1627.74,553.119ZM1620.15,557.527C1620.15,563.954 1620.38,570.112 1620.14,576.64C1619.9,581.387 1612.74,583.642 1607.9,578.759C1607.9,578.759 1607.75,557.527 1607.75,557.527L1600.44,557.527L1600.44,586.777L1607.15,586.777L1607.48,583.906C1615.05,589.953 1627.42,587.391 1627.47,576.539L1627.47,557.527L1620.15,557.527Z" style="fill:rgb(23,66,23);"/>
                </g>
                <g transform="matrix(1,0,0,1,-84.9335,213.032)">
                    <path d="M1138.43,664.529L1134.21,664.529L1134.21,659.546L1143.36,659.546L1143.36,664.366L1154.95,664.366L1154.68,669.35L1138.43,669.35L1138.43,664.529Z" style="fill:white;fill-rule:nonzero;"/>
                </g>
                <g transform="matrix(1,2.77556e-17,0,1,-84.9335,213.032)">
                    <path d="M1143.61,655.132C1144.39,655.311 1144.65,655.44 1145.1,655.693C1146.66,656.562 1147.71,657.956 1147.91,659.853L1154.24,659.853C1156.96,659.911 1159.61,662.49 1159.52,665.305L1159.25,670.289C1159.19,670.978 1159.12,671.174 1158.97,671.543C1158.41,672.962 1157.29,673.823 1155.4,673.863L1139.15,673.863C1136.56,673.809 1134.04,671.453 1133.87,668.922C1133.87,668.922 1129.71,667.311 1129.64,663.823L1129.64,658.84C1129.65,658.083 1129.73,657.846 1129.89,657.423C1130.43,655.965 1131.58,655.072 1133.49,655.032L1142.65,655.032C1142.92,655.038 1142.95,655.01 1143.61,655.132ZM1134.21,659.546L1134.21,664.529L1138.43,664.529L1138.43,669.35L1154.68,669.35L1154.95,664.366L1143.36,664.366L1143.36,659.546L1134.21,659.546Z" style="fill:rgb(23,66,23);"/>
                </g>
                <g transform="matrix(1,0,0,1,20.5055,241.842)">
                    <path d="M986.256,576.359L960.063,602.552L945.665,588.154L951.191,582.788L959.132,590.73L979.811,570.051C981.959,572.154 984.108,574.256 986.256,576.359Z" style="fill:white;fill-rule:nonzero;"/>
                </g>
                <g transform="matrix(1,2.77556e-17,0,1,20.5055,241.842)">
                    <path d="M980.093,565.645C981.058,565.88 981.68,566.096 982.76,567.102L989.205,573.41C989.849,574.073 989.979,574.306 990.221,574.756C991.153,576.488 991.161,578.261 989.746,579.775L963.553,605.969C962.969,606.514 962.749,606.605 962.323,606.776C960.677,607.435 958.843,607.145 957.07,605.458L942.672,591.061C942.035,590.391 941.908,590.157 941.671,589.704C940.76,587.965 940.775,586.195 942.212,584.701L947.737,579.335C948.323,578.804 948.543,578.715 948.969,578.55C950.611,577.912 952.425,578.209 954.183,579.882L958.628,584.327L976.321,566.635C976.321,566.635 978.208,565.294 980.093,565.645ZM959.132,590.73L951.191,582.788L945.665,588.154L960.063,602.552L986.256,576.359L979.811,570.051C972.918,576.944 966.025,583.837 959.132,590.73Z" style="fill:rgb(23,66,23);"/>
                </g>
                <g transform="matrix(1,0,0,1,20.5055,324.692)">
                    <path d="M986.256,576.359L960.063,602.552L945.665,588.154L951.191,582.788L959.132,590.73L979.811,570.051C981.959,572.154 984.108,574.256 986.256,576.359Z" style="fill:white;fill-rule:nonzero;"/>
                </g>
                <g transform="matrix(1,2.77556e-17,0,1,20.5055,324.692)">
                    <path d="M980.093,565.645C981.058,565.88 981.68,566.096 982.76,567.102L989.205,573.41C989.849,574.073 989.979,574.306 990.221,574.756C991.153,576.488 991.161,578.261 989.746,579.776L963.553,605.969C962.969,606.514 962.749,606.605 962.323,606.776C960.677,607.435 958.843,607.145 957.07,605.458L942.672,591.061C942.035,590.391 941.908,590.157 941.671,589.704C940.76,587.965 940.775,586.195 942.212,584.701L947.737,579.335C948.323,578.804 948.543,578.715 948.969,578.55C950.611,577.912 952.425,578.209 954.183,579.882L958.628,584.327L976.321,566.635C976.321,566.635 978.208,565.294 980.093,565.645ZM959.132,590.73L951.191,582.788L945.665,588.154L960.063,602.552L986.256,576.359L979.811,570.051C972.918,576.944 966.025,583.837 959.132,590.73Z" style="fill:rgb(23,66,23);"/>
                </g>
            </g>
        </g>
    </g>
</svg>
