<?xml version="1.0" encoding="UTF-8" standalone="no"?>
<!DOCTYPE svg PUBLIC "-//W3C//DTD SVG 1.1//EN" "http://www.w3.org/Graphics/SVG/1.1/DTD/svg11.dtd">
<svg width="100%" height="100%" viewBox="0 0 668 199" version="1.1" xmlns="http://www.w3.org/2000/svg" xmlns:xlink="http://www.w3.org/1999/xlink" xml:space="preserve" xmlns:serif="http://www.serif.com/" style="fill-rule:evenodd;clip-rule:evenodd;stroke-linejoin:round;stroke-miterlimit:1.41421;">
    <defs>
        <filter id="f3" x="0" y="0" width="200%" height="200%">
            <feOffset result="offOut" in="SourceAlpha" dx="5" dy="5" />
            <feGaussianBlur result="blurOut" in="offOut" stdDeviation="3"/>
            <feBlend in="SourceGraphic" in2="blurOut" mode="normal" />
        </filter>
    </defs>
    <g transform="matrix(1,0,0,1,-311,-85)" filter="url(#f3)">
        <g transform="matrix(1,0,0,5.98439,0,0)">
            <g transform="matrix(0.250223,-0.00662246,-1.52546e-17,0.0405884,261.275,7.07527)">
                <g transform="matrix(0.97443,0,0,0.97443,-69.5516,42.1646)">
                    <path d="M307.886,673.919C307.886,660.885 310.058,650.087 314.403,641.526C318.748,632.964 326.415,627.022 337.404,623.7L298.302,613.349L298.302,563.896C310.314,553.929 325.073,545.623 342.58,538.978C360.086,532.333 379.318,529.011 400.275,529.011C432.988,529.011 457.586,535.591 474.071,548.753C490.555,561.915 498.797,583.958 498.797,614.882L498.797,739.856L447.044,739.856L447.044,613.732C447.044,597.631 443.274,586.194 435.735,579.422C428.196,572.649 415.481,569.263 397.591,569.263C386.602,569.263 376.251,570.924 366.539,574.247C356.828,577.569 348.905,581.786 342.771,586.897L342.771,592.264L385.324,603.765L385.324,635.2C375.357,637.756 368.584,641.909 365.006,647.659C361.428,653.41 359.639,662.291 359.639,674.303L359.639,739.856L307.886,739.856L307.886,673.919Z" style="fill:white;fill-rule:nonzero;"/>
                    <path d="M432.655,510.478C461.518,515.692 491.526,530.064 506.839,559.529C516.509,578.134 519.222,598.827 519.304,618.182L519.304,743.202C519.174,747.351 518.84,747.986 518.254,749.702C515.898,756.61 509.442,760.991 502.005,761.245L450.252,761.245C446.001,761.102 444.773,760.627 442.431,759.687C433.373,756.055 426.896,748.108 426.538,736.511C426.538,694.079 426.999,651.721 426.529,609.215C426.419,603.317 424.143,594.937 423.803,594.658C418.299,590.31 408.833,590.613 399.953,590.656C399.953,590.656 405.541,597.718 405.83,607.111L405.83,638.546C405.35,653.544 385.044,655.222 382.137,662.382C380.336,666.816 380.17,672.382 380.146,677.699L380.146,743.202C379.825,753.42 374.341,760.853 362.847,761.245L311.094,761.245C306.842,761.102 305.615,760.627 303.273,759.687C294.214,756.055 287.738,748.108 287.379,736.511C287.379,700.723 282.275,662.707 293.61,634.437C293.61,634.437 278.256,624.9 277.795,610.003L277.795,560.55C278.238,545.924 294.061,537.856 308.106,530.14C343.484,510.704 385.938,503.281 429.747,509.993C431.201,510.229 431.2,510.229 432.655,510.478ZM429.856,531.136C381.843,523.779 333.756,534.658 298.302,563.896L298.302,613.349L337.404,623.7C325.665,627.309 316.057,635.678 311.864,647.465C309.004,655.503 307.958,664.355 307.887,673.31C307.887,673.31 307.886,739.856 307.886,739.856L359.639,739.856L359.639,674.303C359.644,673.192 359.644,673.194 359.66,672.087C360.078,654.842 368.263,639.895 384.399,635.444L385.324,635.2L385.324,603.765L342.771,592.264L342.771,586.897C363.59,569.799 394.974,564.026 422.299,572.301C433.148,575.587 442.793,585.725 445.454,597.586C446.664,602.98 447.025,608.4 447.044,613.732L447.044,739.856L498.797,739.856L498.797,614.882C498.774,609.424 498.545,603.935 497.928,598.424C495.968,580.93 489.674,561.665 474.837,549.377C461.776,538.559 445.3,533.641 429.856,531.136Z" style="fill:rgb(23,66,23);"/>
                    <path d="M429.41,487.991L407.175,487.991L407.175,456.556L429.41,456.556L429.41,437.388L477.329,437.388L477.329,456.556L500.331,456.556L500.331,487.991L477.329,487.991L477.329,504.476L429.41,504.476L429.41,487.991Z" style="fill:white;fill-rule:nonzero;"/>
                    <path d="M478.429,416.473C481.606,417.237 482.551,417.718 484.335,418.677C490.593,422.041 495.043,427.145 497.138,435.168C497.138,435.168 520.448,440.832 520.837,459.902L520.837,491.337C520.765,494.921 520.424,496.047 519.713,498.052C517.274,504.926 512.11,509.191 503.539,509.38L497.677,510.424C497.221,513.554 496.845,514.428 496.089,516.069C493.296,522.129 488.556,525.687 480.537,525.864L432.618,525.864C429.112,525.786 427.909,525.422 425.737,524.66C418.903,522.263 413.551,517.476 410.434,509.38C410.434,509.38 387.057,503.716 386.669,484.646L386.669,453.21C386.87,443.282 388.981,443.005 391.582,440.292C394.74,436.999 397.905,435.301 403.967,435.168L408.903,435.168C408.903,435.168 408.872,430.118 410.322,426.552C412.957,420.07 417.916,416.183 426.202,416L474.121,416C475.893,416.039 476.387,416.071 478.429,416.473ZM429.41,437.388L429.41,456.556L407.175,456.556L407.175,487.991L429.41,487.991L429.41,504.476L477.329,504.476L477.329,487.991L500.331,487.991L500.331,456.556L477.329,456.556L477.329,437.388L429.41,437.388Z" style="fill:rgb(23,66,23);"/>
                    <path d="M596.553,743.69C571.763,743.69 549.784,739.601 530.616,731.423L530.616,691.937C547.995,699.604 565.885,703.438 584.286,703.438C608.565,703.438 625.816,698.39 636.039,688.295C646.262,678.2 651.373,660.885 651.373,636.35C651.373,611.815 646.262,594.501 636.039,584.406C625.816,574.31 608.565,569.263 584.286,569.263C565.885,569.263 547.995,573.096 530.616,580.764L530.616,541.278C549.784,533.1 571.763,529.011 596.553,529.011C631.311,529.011 657.315,538.083 674.566,556.229C691.817,574.374 700.443,601.081 700.443,636.35C700.443,671.619 691.817,698.326 674.566,716.472C657.315,734.617 631.311,743.69 596.553,743.69Z" style="fill:white;fill-rule:nonzero;"/>
                    <path d="M623.96,510.065C656.223,515.674 688.671,534.384 705.692,567.536C722.803,600.862 723.966,638.374 718.514,671.529C713.073,704.613 695.764,734.051 668.759,749.396C645.869,762.403 617.958,766.066 589.775,764.869C567.137,763.908 542.538,762.386 521.962,749.163C514.875,744.608 510.419,738.235 510.109,728.077L510.109,688.591C510.243,684.26 510.686,683.142 511.563,681.015C515.718,670.942 527.85,669.323 540.754,674.407C564.891,683.744 591.602,685.908 612.147,677.21C634.436,667.773 636.57,627.499 626.554,604.124C617.494,582.979 571.006,587.967 542.435,600.052C542.435,600.052 510.876,602.388 510.109,577.418L510.109,537.932C510.23,533.928 510.541,533.312 511.087,531.647C514.146,522.308 524.882,519.086 534.991,515.919C562.796,507.21 593.081,504.868 623.96,510.065ZM622.398,530.931C590.737,525.948 558.995,529.526 531.516,540.898L530.616,541.278L530.616,580.764C559.238,568.24 595.068,562.494 624.396,576.42C649.808,588.487 655.182,625.947 649.722,658.17C647.718,669.996 643.506,681.48 635.06,689.227C609.797,712.398 564.476,706.752 530.616,691.937L530.616,731.423C555.537,741.948 582.207,744.788 606.872,743.409C639.985,741.559 672.251,727.536 687.65,698.047C701.084,672.319 703.296,639.383 698.396,608.624C694.641,585.057 683.583,560.145 661.989,545.623C649.837,537.452 636.141,533.169 622.398,530.931Z" style="fill:rgb(23,66,23);"/>
                    <path d="M821.583,743.69C791.426,743.69 767.338,738.451 749.321,727.972C731.303,717.494 722.294,700.499 722.294,676.986C722.294,667.53 724.466,658.904 728.811,651.109C733.156,643.315 739.673,636.989 748.362,632.133C740.695,628.811 734.561,623.508 729.961,616.224C725.361,608.94 723.061,600.315 723.061,590.348C723.061,570.669 729.258,555.526 741.653,544.92C754.049,534.314 770.725,529.011 791.681,529.011C805.993,529.011 817.877,530.8 827.334,534.378L827.334,572.33C819.922,570.285 811.105,569.263 800.882,569.263C791.17,569.263 783.95,570.924 779.222,574.247C774.494,577.569 772.13,582.936 772.13,590.348C772.13,598.526 774.686,604.276 779.797,607.599C784.909,610.921 793.087,612.582 804.332,612.582L825.8,612.582L827.717,650.534L803.949,650.534C782.225,650.534 771.364,659.352 771.364,676.986C771.364,685.931 775.261,692.576 783.056,696.921C790.851,701.265 802.927,703.438 819.283,703.438C851.741,703.438 867.969,690.02 867.969,663.185L867.969,532.844L919.722,532.844L919.722,658.585C919.722,687.72 911.416,709.188 894.804,722.989C878.192,736.79 853.785,743.69 821.583,743.69Z" style="fill:white;fill-rule:nonzero;"/>
                    <path d="M920.438,511.849C924.462,512.783 925.117,513.255 926.848,514.198C934.694,518.473 939.896,525.421 940.229,536.19L940.229,661.978C940.094,693.058 930.618,722.859 908.56,740.913C876.793,766.913 829.715,769.623 786.389,761.972C753.838,756.224 718.943,737.351 707.271,706.016C697.395,679.501 700.829,649.804 716.061,630.188C716.061,630.188 701.945,605.495 702.604,583.613C703.997,537.401 743.036,506.041 794.357,507.716C806.27,508.105 818.481,509.716 830.303,513.931C830.303,513.931 844.726,521.027 847.449,533.554C847.449,533.554 847.505,528.149 847.505,528.149C847.895,524.06 848.271,523.455 848.968,521.799C851.608,515.53 857.804,511.693 864.761,511.456L916.514,511.456C918.008,511.506 917.021,511.281 920.438,511.849ZM867.969,532.844C867.969,576.5 868.173,620.19 867.966,663.812C867.799,675.479 864.092,686.517 855.798,693.375C837.937,708.141 809.704,706.562 789.242,699.617C773.704,694.344 763.96,669.378 779.766,656.942C786.186,651.892 795.123,650.563 803.949,650.534L827.717,650.534L825.8,612.582C807.63,612.582 785.156,617.235 775.591,603.544C767.192,591.521 773.249,574.234 787.514,570.669C799.929,567.567 813.829,568.684 827.334,572.33L827.334,534.378C780.936,517.029 725.182,536.166 723.133,586.711C722.414,604.463 731.152,624.582 748.362,632.133C716.414,650.141 711.791,706.718 750.17,728.46C788.681,750.277 837.482,747.424 868.525,737.14C899.526,726.87 919.553,696.419 919.722,658.585L919.722,532.844L867.969,532.844ZM847.117,660.546C840.086,678.529 807.085,665.97 794.113,674.424C792.378,675.554 791.912,679.074 791.912,679.074C806.255,684.551 823.075,683.143 833.691,679.84C841.84,677.304 847.418,669.348 847.463,659.788C847.463,659.788 847.852,658.202 847.117,660.546ZM847.459,579.669C847.459,579.669 842.761,592.134 833.06,593.549C829.63,594.049 834.433,594.402 837.652,597.276C842.693,601.777 845.754,608.364 846.279,614.817L847.463,638.265C847.463,618.733 850.498,560.885 847.459,579.669ZM814.757,591.141C805.598,590.268 791.005,591.147 801.169,591.194C801.169,591.194 817.67,591.443 814.757,591.141Z" style="fill:rgb(23,66,23);"/>
                    <path d="M1048.15,743.69C1042.52,743.69 1036.07,743.115 1028.79,741.965C1021.5,740.815 1015.69,739.473 1011.35,737.94L982.209,660.118L953.841,660.118L956.141,623.316L1014.8,623.316L1045.08,704.204C1061.44,704.204 1073.83,698.582 1082.27,687.337C1090.7,676.092 1094.92,658.457 1094.92,634.433C1094.92,617.566 1092.74,604.468 1088.4,595.139C1084.05,585.811 1076.9,579.166 1066.93,575.205C1056.96,571.244 1043.04,569.263 1025.14,569.263C1014.67,569.263 1003.61,570.094 991.985,571.755C980.357,573.416 969.431,575.908 959.208,579.23L959.208,540.895C984.254,532.972 1010.71,529.011 1038.56,529.011C1075.37,529.011 1102.14,537.828 1118.88,555.462C1135.62,573.096 1143.99,599.42 1143.99,634.433C1143.99,657.435 1139.64,677.178 1130.95,693.662C1122.26,710.146 1110.63,722.605 1096.07,731.039C1081.5,739.473 1065.53,743.69 1048.15,743.69Z" style="fill:white;fill-rule:nonzero;"/>
                    <path d="M1068.82,510.238C1101.48,515.868 1134.02,533.942 1150.7,568.55C1161.15,590.221 1164.4,613.849 1164.49,636.877C1164.78,711.644 1111.09,778.081 1024.48,762.36C1020.27,761.597 1016.06,760.686 1011.89,759.473C1003.49,757.031 996.66,753.423 992.376,742.871L969.402,681.507L955.747,681.463C951.471,681.035 950.264,680.483 947.961,679.397C939.057,675.199 933.021,666.915 933.376,655.436L935.676,618.633C936.04,614.726 936.385,614.144 937.026,612.549C939.605,606.129 945.829,602.159 952.933,601.928L1011.59,601.928C1020.98,602.242 1029.15,607.041 1033.76,618.384L1056.77,679.832C1057.99,679.241 1059.16,678.53 1060.25,677.731C1061.14,677.075 1061.99,676.353 1062.78,675.575C1079.83,658.844 1078.04,624.046 1071.12,604.186C1067.07,592.589 1049.9,591.31 1035.73,590.783C1012.27,589.911 989.256,592.911 967.941,599.769C967.941,599.769 953.387,601.628 945.171,592.34C941.108,587.747 938.94,583.727 938.701,575.884L938.701,537.549C939.232,520.343 960.559,516.722 978.719,513.092C1006.91,507.458 1036.43,505.31 1066.32,509.834C1067.15,509.965 1067.99,510.099 1068.82,510.238ZM1067.23,531.103C1030,525.273 993.079,530.273 959.208,540.895L959.208,579.23C990.085,569.295 1024.86,564.446 1058.15,572.468C1069.78,575.27 1081.77,582.025 1087.77,593.845C1097.01,612.043 1095.87,632.785 1094.22,650.272C1091.61,678.066 1076.79,704.033 1045.08,704.204L1014.8,623.316L956.141,623.316L953.841,660.118L982.209,660.118L1011.35,737.94C1077.57,760.978 1146.51,712.853 1143.89,627.97C1143.79,624.624 1143.6,621.267 1143.31,617.902C1143.08,615.206 1142.79,612.505 1142.42,609.803C1139.05,585.147 1127.64,557.991 1104.44,543.89C1092.75,536.783 1079.73,533.125 1067.23,531.103Z" style="fill:rgb(23,66,23);"/>
                    <path d="M1037.8,443.522L1079.96,443.522L1079.96,469.207L1175.42,469.207L1173.5,504.476L1037.8,504.476L1037.8,443.522Z" style="fill:white;fill-rule:nonzero;"/>
                    <path d="M1080.91,422.574C1084.3,423.376 1085.22,423.867 1087.02,424.837C1095.1,429.205 1100.47,438.582 1100.47,447.819L1172.21,447.819C1181.49,448.067 1182.98,450.406 1186.25,453.033C1192.55,458.101 1196.16,464.658 1195.9,473.718L1193.98,508.987C1193.71,512.39 1193.38,513.28 1192.72,514.998C1190.16,521.642 1185.38,525.633 1176.71,525.864L1041,525.864C1037.2,525.762 1035.99,525.356 1033.75,524.525C1024.44,521.074 1017.57,512.526 1017.29,501.13L1017.29,440.176C1017.38,436.72 1017.66,435.801 1018.22,434.026C1020.51,426.863 1025.54,422.376 1034.59,422.134L1076.76,422.134C1079.95,422.219 1079.97,422.4 1080.91,422.574ZM1037.8,443.522L1037.8,504.476L1173.5,504.476L1175.42,469.207L1079.96,469.207L1079.96,443.522L1037.8,443.522Z" style="fill:rgb(23,66,23);"/>
                    <path d="M1278.54,743.69C1247.36,743.69 1223.15,736.342 1205.9,721.647C1188.65,706.952 1180.02,685.292 1180.02,656.668L1180.02,532.844L1231.77,532.844L1231.77,657.435C1231.77,673.025 1235.67,684.589 1243.47,692.129C1251.26,699.668 1262.95,703.438 1278.54,703.438C1294.13,703.438 1305.83,699.668 1313.62,692.129C1321.42,684.589 1325.31,673.025 1325.31,657.435L1325.31,532.844L1377.07,532.844L1377.07,656.668C1377.07,685.292 1368.44,706.952 1351.19,721.647C1333.94,736.342 1309.72,743.69 1278.54,743.69Z" style="fill:white;fill-rule:nonzero;"/>
                    <path d="M1377.78,511.849C1381.81,512.783 1382.46,513.255 1384.19,514.198C1392.04,518.473 1397.24,525.421 1397.57,536.19C1397.57,577.979 1397.86,619.815 1397.57,661.555C1397.02,707.664 1370.72,746.527 1327.23,759.197C1304.74,765.75 1280.03,766.797 1255.59,763.324C1224.88,758.962 1191.37,743.201 1173.7,712.256C1163.34,694.108 1159.56,673.206 1159.52,653.348L1159.52,529.498C1159.83,519.307 1165.32,511.848 1176.81,511.456L1228.57,511.456C1232.82,511.599 1234.05,512.074 1236.39,513.013C1245.37,516.616 1251.92,524.48 1252.28,536.19C1252.28,578.088 1251.8,619.909 1252.29,661.884C1252.48,671.653 1248.03,683.43 1278.72,681.971C1286.59,681.597 1294.69,679.785 1299.31,674.543C1303.9,669.321 1304.78,661.388 1304.81,654.047L1304.81,529.498C1304.94,525.35 1305.27,524.714 1305.86,522.998C1308.21,516.106 1314.67,511.709 1322.11,511.456L1373.86,511.456C1375.35,511.506 1374.37,511.281 1377.78,511.849ZM1325.31,532.844C1325.31,574.617 1325.47,616.417 1325.31,658.163C1324.98,685.86 1305.76,705.669 1272.2,703.214C1270.66,703.102 1269.12,702.944 1267.58,702.731C1257.73,701.369 1247,697.537 1240.1,688.3C1233.26,679.155 1231.81,667.523 1231.77,657.435L1231.77,532.844L1180.02,532.844C1180.02,574.564 1179.73,616.238 1180.03,658.005C1180.33,683.585 1188.82,711.128 1213.59,727.411C1236.3,742.342 1263.18,744.601 1287.13,743.496C1333.05,741.379 1376.93,714.597 1377.07,656.668L1377.07,532.844L1325.31,532.844Z" style="fill:rgb(23,66,23);"/>
                    <path d="M1657.68,767.075C1643.88,767.075 1629.89,765.797 1615.71,763.241C1601.52,760.685 1589.06,756.469 1578.33,750.59L1578.33,710.721C1588.81,716.088 1601.39,720.177 1616.09,722.989C1630.78,725.8 1644.01,727.206 1655.77,727.206C1671.61,727.206 1684.39,725.544 1694.1,722.222C1703.81,718.9 1708.67,714.299 1708.67,708.421C1708.67,703.821 1706.62,700.243 1702.54,697.687C1689.25,705.354 1673.27,709.188 1654.62,709.188C1623.95,709.188 1600.5,701.904 1584.27,687.337C1568.04,672.769 1559.93,651.046 1559.93,622.166L1559.93,613.732C1559.93,597.887 1556.35,586.514 1549.19,579.614C1542.04,572.713 1530.41,569.263 1514.31,569.263C1503.32,569.263 1492.97,570.924 1483.26,574.247C1473.54,577.569 1465.62,581.786 1459.49,586.897L1459.49,592.264L1502.04,603.765L1502.04,635.2C1492.07,637.756 1485.3,641.909 1481.72,647.659C1478.14,653.41 1476.36,662.291 1476.36,674.303L1476.36,685.42C1476.36,690.531 1477.44,694.173 1479.61,696.346C1481.79,698.518 1485.43,699.604 1490.54,699.604L1510.86,699.604L1510.86,739.856L1464.09,739.856C1452.33,739.856 1442.81,736.087 1435.53,728.547C1428.24,721.008 1424.6,711.233 1424.6,699.221L1424.6,673.919C1424.6,660.885 1426.78,650.087 1431.12,641.526C1435.46,632.964 1443.13,627.022 1454.12,623.7L1415.02,613.349L1415.02,563.896C1427.03,553.929 1441.79,545.623 1459.3,538.978C1476.8,532.333 1496.04,529.011 1516.99,529.011C1547.66,529.011 1570.79,535.591 1586.38,548.753C1601.97,561.915 1609.76,583.958 1609.76,614.882L1609.76,622.933C1609.76,638.778 1613.34,650.407 1620.5,657.818C1627.65,665.23 1639.03,668.936 1654.62,668.936C1670.21,668.936 1681.58,665.23 1688.74,657.818C1695.89,650.407 1699.47,638.778 1699.47,622.933L1699.47,532.844L1751.22,532.844L1751.22,622.166C1751.22,644.401 1746.11,662.291 1735.89,675.836C1740.74,680.181 1744.64,685.612 1747.58,692.129C1750.52,698.646 1751.99,705.482 1751.99,712.638C1751.99,730.017 1743.62,743.434 1726.88,752.891C1710.14,762.347 1687.07,767.075 1657.68,767.075Z" style="fill:white;fill-rule:nonzero;"/>
                    <path d="M1752.83,512.047C1763.13,514.982 1771.32,525.29 1771.73,536.19C1771.73,584.811 1779.95,637.773 1761.22,676.754C1776.29,701.289 1775.77,733.337 1760.45,753.596C1727.79,796.773 1654.11,795.646 1600.72,781.003C1591.09,778.363 1581.55,774.724 1572.42,769.892C1572.42,769.892 1558.3,760.372 1557.82,747.245L1557.82,707.376C1558.03,702.003 1558.6,698.354 1563.63,693.607C1543.6,669.975 1539.72,637.603 1539.41,609.229C1539.24,599.872 1540.27,593.722 1529.35,591.621C1524.9,590.766 1520.44,590.602 1516.07,590.664C1516.07,590.664 1522.28,599.824 1522.55,607.111L1522.55,638.546C1522.1,650.102 1510.33,652.562 1500.8,659.818C1496.69,662.943 1496.9,670.4 1496.86,677.7C1496.86,677.7 1509.25,678.282 1509.25,678.282C1514.19,678.888 1515.04,679.474 1517.19,680.547C1525.37,684.619 1531.02,693.836 1531.36,702.95L1531.36,743.202C1530.98,753.228 1523.81,760.838 1514.07,761.245C1484.7,761.245 1453.9,766.838 1430.31,749.537C1413.93,737.523 1404.38,716.612 1404.1,696.642C1404,674.827 1402.91,652.448 1410.57,633.855C1410.57,633.855 1395.04,624.068 1394.51,610.003L1394.51,560.55C1395,548.27 1398.51,548.157 1402.72,544.787C1442.07,513.324 1496.35,500.397 1548.99,510.784C1574.18,515.754 1601.13,529.189 1615.9,554.977C1628.81,577.514 1630.03,603.974 1630.28,627.437C1630.45,637.2 1629.65,645.449 1644.09,647.152C1662.6,649.335 1678.88,643.032 1678.96,619.548L1678.96,529.498C1679.35,519.472 1686.51,511.863 1696.26,511.456L1748.01,511.456C1749.85,511.531 1748.64,511.193 1752.83,512.047ZM1699.47,532.844C1699.47,563.12 1699.57,593.414 1699.47,623.672C1699.31,638.184 1695.95,653.544 1684.27,661.596C1671.62,670.309 1654.22,671.188 1637.7,667.101C1630.84,665.402 1623.8,662.01 1618.89,656.004C1607.48,642.044 1610.27,623.508 1609.62,607.797C1608.68,584.879 1602.23,559.339 1581.4,544.947C1561.9,531.485 1538.47,528.901 1516.01,529.013C1478.86,529.197 1443.38,541.058 1416.15,562.966L1415.02,563.896L1415.02,613.349L1454.12,623.7C1442.38,627.309 1432.77,635.678 1428.58,647.465C1422.98,663.194 1424.52,681.723 1424.61,699.782C1424.89,719.904 1442,739.745 1464.09,739.856L1510.86,739.856L1510.86,699.604C1495.98,699.604 1476.79,706.708 1476.36,685.895C1476.23,666.84 1477.24,646.742 1491.13,639.288C1495.31,637.044 1502.04,635.2 1502.04,635.2L1502.04,603.765L1459.49,592.264L1459.49,586.897C1462.59,584.353 1463.21,584.009 1465.09,582.797C1484.03,570.574 1508.44,565.47 1532.3,571.105C1542.7,573.561 1553.33,581.399 1557.07,592.789C1561.75,607.017 1559.08,621.611 1560.65,636.423C1562.78,656.626 1571.28,678.115 1589.44,691.55C1624.75,717.666 1671.77,714.502 1701.28,698.395C1701.28,698.395 1704.88,698.863 1706.73,701.629C1717.61,717.944 1679.35,728.567 1647.84,727.004C1624.61,725.852 1600.74,721.97 1578.82,710.972C1578.82,710.972 1578.33,750.59 1578.33,750.59C1610.47,768.067 1646.92,769.243 1679.77,766.074C1716.64,762.516 1761.14,746.881 1750.75,701.504C1748.55,691.928 1743.36,682.612 1735.89,675.836C1738.2,672.738 1738.43,672.279 1739.48,670.553C1747.84,656.885 1751.16,639.785 1751.22,622.166L1751.22,532.844L1699.47,532.844Z" style="fill:rgb(23,66,23);"/>
                    <path d="M1849.36,743.69C1824.57,743.69 1802.59,739.601 1783.42,731.423L1783.42,691.937C1800.8,699.604 1818.69,703.438 1837.09,703.438C1861.37,703.438 1878.62,698.39 1888.85,688.295C1899.07,678.2 1904.18,660.885 1904.18,636.35C1904.18,611.815 1899.07,594.501 1888.85,584.406C1878.62,574.31 1861.37,569.263 1837.09,569.263C1818.69,569.263 1800.8,573.096 1783.42,580.764L1783.42,541.278C1802.59,533.1 1824.57,529.011 1849.36,529.011C1884.12,529.011 1910.12,538.083 1927.37,556.229C1944.62,574.374 1953.25,601.081 1953.25,636.35C1953.25,671.619 1944.62,698.326 1927.37,716.472C1910.12,734.617 1884.12,743.69 1849.36,743.69Z" style="fill:white;fill-rule:nonzero;"/>
                    <path d="M1876.77,510.065C1909.03,515.674 1941.48,534.392 1958.5,567.533C1975.61,600.859 1976.78,638.377 1971.32,671.531C1965.83,704.883 1948.27,734.482 1920.94,749.752C1898.15,762.48 1870.5,766.054 1842.58,764.869C1819.9,763.907 1794.82,762.047 1774.77,749.163C1767.68,744.608 1763.23,738.235 1762.92,728.077L1762.92,688.591C1763.05,684.26 1763.49,683.142 1764.37,681.015C1768.57,670.844 1780.83,669.391 1793.56,674.407C1817.7,683.742 1844.41,685.906 1864.96,677.209C1887.24,667.777 1889.39,627.528 1879.36,604.124C1870.29,582.956 1823.82,587.965 1795.24,600.052C1795.24,600.052 1763.68,602.389 1762.92,577.418L1762.92,537.932C1763.04,533.929 1763.35,533.313 1763.89,531.647C1766.95,522.308 1777.69,519.086 1787.8,515.92C1815.57,507.219 1845.89,504.868 1876.77,510.065ZM1875.21,530.931C1843.55,525.948 1811.8,529.526 1784.33,540.898L1783.42,541.278L1783.42,580.764C1812.05,568.24 1847.88,562.494 1877.2,576.42C1902.62,588.487 1907.99,625.947 1902.53,658.17C1900.53,669.996 1896.31,681.48 1887.87,689.227C1862.61,712.398 1817.28,706.752 1783.42,691.937L1783.42,731.423C1808.35,741.948 1835.02,744.788 1859.68,743.409C1892.79,741.559 1925.06,727.536 1940.46,698.047C1953.89,672.319 1956.1,639.383 1951.2,608.624C1947.45,585.057 1936.39,560.145 1914.8,545.623C1902.64,537.452 1888.95,533.169 1875.21,530.931Z" style="fill:rgb(23,66,23);"/>
                    <path d="M2057.14,743.69C2034.91,743.69 2017.4,736.917 2004.62,723.372C1991.84,709.827 1985.45,691.17 1985.45,667.402L1985.45,532.844L2037.21,532.844L2037.21,664.335C2037.21,678.136 2040.27,688.103 2046.41,694.237C2052.54,700.371 2061.87,703.438 2074.39,703.438C2083.85,703.438 2093.24,701.393 2102.57,697.304C2111.9,693.215 2119.37,688.103 2124.99,681.97L2124.99,532.844L2176.75,532.844L2176.75,739.856L2129.21,739.856L2126.91,719.539C2106.98,735.64 2083.72,743.69 2057.14,743.69Z" style="fill:white;fill-rule:nonzero;"/>
                    <path d="M2177.46,511.849C2181.49,512.783 2182.14,513.255 2183.87,514.198C2191.72,518.473 2196.92,525.421 2197.25,536.19L2197.25,743.202C2197.12,747.351 2196.79,747.986 2196.2,749.702C2193.85,756.595 2187.39,760.991 2179.95,761.245L2132.42,761.245C2126.29,761.037 2120.23,758.293 2115.44,753.259C2110.71,755.476 2109.99,755.695 2107.38,756.695C2066.1,772.536 2008.7,770.039 1979.59,721.887C1968.9,704.207 1965.03,683.561 1964.95,664.101L1964.95,529.498C1965.27,519.307 1970.75,511.848 1982.25,511.456L2034,511.456C2038.25,511.599 2039.48,512.074 2041.82,513.013C2050.88,516.645 2057.35,524.592 2057.71,536.19C2057.71,580.345 2057.26,624.428 2057.72,668.656C2057.85,675.922 2056.84,680.502 2065.14,681.668C2079.33,683.659 2093.48,678.792 2104.49,670.25L2104.49,529.498C2104.81,519.28 2110.29,511.848 2121.79,511.456L2173.54,511.456C2175.03,511.506 2174.05,511.281 2177.46,511.849ZM2124.99,532.844L2124.99,681.97C2122.38,684.783 2121.95,685.074 2120.43,686.378C2096.22,707.161 2048.66,716.264 2039.1,680.734C2037.63,675.282 2037.23,669.744 2037.21,664.335L2037.21,532.844L1985.45,532.844C1985.45,578.067 1985.27,623.259 1985.46,668.513C1985.81,696.24 1999.33,726.513 2024.9,737.613C2060.36,753.007 2100.29,740.814 2126.91,719.539L2129.21,739.856L2176.75,739.856L2176.75,532.844L2124.99,532.844Z" style="fill:rgb(23,66,23);"/>
                </g>
                <g>
                    <g transform="matrix(0.97443,0,0,0.97443,1077.3,329.872)">
                        <path d="M-25.548,140.229C-39.604,140.229 -50.656,136.715 -58.706,129.688C-66.756,122.66 -70.781,112.374 -70.781,98.829C-70.781,85.796 -67.331,75.574 -60.431,68.163C-53.531,60.752 -44.204,57.046 -32.448,57.046C-18.904,57.046 -10.215,61.774 -6.381,71.229L-5.998,71.229C-3.954,66.629 -0.504,63.115 4.352,60.688C9.207,58.26 14.702,57.046 20.835,57.046C32.846,57.046 41.727,59.857 47.477,65.479C53.227,71.102 56.102,78.64 56.102,88.096L56.102,111.863L59.169,111.863C61.98,111.863 63.96,111.16 65.11,109.754C66.26,108.349 66.835,105.729 66.835,101.896L66.835,58.963L95.202,58.963L95.202,104.196C95.202,114.163 92.199,122.085 86.194,127.963C80.188,133.84 72.074,136.779 61.852,136.779L27.735,136.779L27.735,97.296C27.735,92.185 26.969,88.479 25.435,86.179C23.902,83.879 21.091,82.729 17.002,82.729C12.402,82.729 9.335,84.071 7.802,86.754C6.269,89.438 5.502,93.207 5.502,98.063L5.502,103.046L-16.731,103.046L-16.731,98.063C-16.731,87.84 -20.565,82.729 -28.231,82.729C-36.665,82.729 -40.881,88.479 -40.881,99.979C-40.881,106.113 -39.284,110.457 -36.09,113.013C-32.895,115.568 -27.976,116.846 -21.331,116.846L-10.215,116.846L-10.215,140.229L-25.548,140.229Z" style="fill:white;fill-rule:nonzero;"/>
                    </g>
                    <g transform="matrix(0.97443,-2.70459e-17,0,0.97443,1077.3,329.872)">
                        <path d="M96.552,38.104C100.255,39.066 101.263,39.655 103.193,40.812C120.747,51.327 115.838,81.716 115.705,108.214C115.307,136.631 93.745,158.039 65.103,158.168L30.943,158.168C22.745,157.927 15.725,154.378 10.332,145.114C10.332,145.114 7.055,161.196 -7.007,161.618C-37.055,161.618 -72.617,159.244 -86.91,121.17C-99.105,88.682 -86.879,51.116 -58.06,39.669C-43.013,33.692 -24.826,33.355 -8.659,41.938C-8.659,41.938 22.754,27.87 50.214,43.429C50.214,43.429 57.078,37.771 63.627,37.574L91.994,37.574C92.792,37.598 93.624,37.511 96.552,38.104ZM66.835,58.963C66.835,73.959 67.623,89.26 66.775,103.924C66.392,109.392 59.169,111.863 59.169,111.863L56.102,111.863C56.102,94.736 58.935,76.319 47.205,65.218C29.703,48.654 1.022,55.881 -5.998,71.229C-5.998,71.229 -9.455,65.185 -12.742,62.586C-33.288,46.343 -60.313,60.51 -67.686,79.969C-74.796,98.734 -71.15,126.405 -48.383,136.111C-40.93,139.289 -33.087,140.2 -25.548,140.229L-10.215,140.229L-10.215,116.846C-20.383,116.846 -32.109,118.111 -37.595,111.536C-45.462,102.108 -41.781,83.308 -29.01,82.746C-22.61,82.465 -16.78,89.882 -16.731,98.063L-16.731,103.046L5.502,103.046C5.502,96.287 5.323,88.71 9.028,85.186C14.083,80.379 24.987,81.736 27.008,90.005C27.601,92.435 27.724,94.893 27.735,97.296L27.735,136.779C54.532,136.779 85.444,140.064 93.352,116.485C94.937,111.76 95.202,104.196 95.202,104.196L95.202,58.963L66.835,58.963Z" style="fill:rgb(23,66,23);"/>
                    </g>
                </g>
                <g transform="matrix(0.686792,-4.62491e-17,-1.73707e-32,0.686792,1405,526.219)">
                    <path d="M-574.984,743.69C-596.451,743.69 -613.83,738.451 -627.12,727.972C-640.41,717.494 -647.055,701.01 -647.055,678.519C-647.055,657.818 -640.026,641.909 -625.97,630.792C-611.914,619.674 -591.723,614.116 -565.4,614.116L-506.746,614.116L-506.746,604.148C-506.746,591.37 -510.324,582.361 -517.48,577.122C-524.636,571.883 -537.287,569.263 -555.432,569.263C-579.456,569.263 -602.33,572.713 -624.053,579.614L-624.053,540.895C-613.064,537.317 -600.668,534.441 -586.868,532.269C-573.067,530.097 -559.777,529.011 -546.999,529.011C-532.687,529.011 -520.419,530.288 -510.196,532.844L-438.125,532.844L-440.809,572.33L-464.194,572.33C-458.06,581.786 -454.993,594.181 -454.993,609.515L-454.993,739.856L-506.746,739.856L-506.746,652.068L-562.333,652.068C-574.089,652.068 -582.97,654.112 -588.976,658.202C-594.982,662.291 -597.985,669.063 -597.985,678.519C-597.985,687.976 -595.238,694.493 -589.743,698.071C-584.248,701.649 -574.728,703.438 -561.183,703.438C-549.426,703.438 -540.609,702.415 -534.731,700.371L-534.731,738.323C-546.232,741.901 -559.649,743.69 -574.984,743.69Z" style="fill:white;fill-rule:nonzero;"/>
                    <path d="M-436.359,503.215C-431.224,504.52 -429.822,505.317 -427.132,506.887C-415.767,513.519 -408.492,524.815 -409.1,539.65L-411.783,579.136C-412.244,583.993 -412.63,584.729 -413.36,586.749C-416.199,594.603 -426.757,597.804 -426.254,604.314C-426.023,607.63 -425.908,610.928 -425.898,614.216L-425.898,744.604C-426.03,749.59 -426.369,750.367 -426.967,752.478C-429.963,763.062 -437.157,769.819 -450.442,770.203L-502.195,770.203C-507.483,770.048 -510.792,769.734 -518.084,765.61C-518.084,765.61 -545.056,773.523 -565.564,773.982C-603.914,774.841 -649.638,762.774 -668.659,715.586C-685.75,673.187 -674.156,625.057 -641.024,602.109C-641.024,602.109 -652.806,587.563 -653.148,574.866L-653.148,536.147C-653.019,531.211 -652.686,530.44 -652.101,528.348C-646.677,508.977 -620.166,506.221 -596.906,502.462C-585.555,500.627 -574.028,499.378 -562.352,498.891C-544.795,498.16 -526.9,498.884 -509.018,503.066L-511.342,502.498L-442.677,502.498C-442.677,502.498 -440.65,502.367 -436.359,503.215ZM-510.196,532.844C-548.192,523.552 -586.437,529.236 -621.976,540.232L-624.053,540.895L-624.053,579.614C-622.695,579.186 -621.333,578.768 -619.967,578.36C-592.141,570.204 -562.156,564.769 -531.746,571.352C-517.951,574.339 -506.815,588.511 -506.746,604.148L-506.746,614.116C-556.358,614.116 -613.952,602.166 -639.225,646.013C-654.248,672.077 -650.42,715.39 -619.213,733.314C-592.457,748.681 -561.085,746.352 -534.731,738.323L-534.731,700.371C-554.798,707.136 -583.893,706.884 -593.54,694.597C-603.671,681.694 -597.86,660.121 -581.763,654.709C-575.659,652.657 -568.996,652.104 -562.333,652.068L-506.746,652.068L-506.746,739.856L-454.993,739.856C-454.993,695.934 -454.586,652.075 -455.002,608.086C-455.189,596.317 -457.114,583.658 -463.908,572.775C-463.908,572.775 -440.809,572.33 -440.809,572.33L-438.125,532.844L-510.196,532.844Z" style="fill:rgb(23,66,23);"/>
                    <path d="M-499.462,841.062C-514.797,841.062 -527,838.06 -536.073,832.054C-545.146,826.048 -549.682,818.189 -549.682,808.477L-549.682,790.459L-570.767,790.459L-568.85,759.408L-513.647,759.408L-513.647,796.21C-513.647,804.388 -508.918,808.477 -499.462,808.477C-494.862,808.477 -491.284,807.455 -488.728,805.41C-486.173,803.366 -484.895,800.299 -484.895,796.21L-484.895,759.408L-448.093,759.408L-448.093,800.043C-448.093,811.8 -452.437,821.575 -461.127,829.37C-469.816,837.165 -482.595,841.062 -499.462,841.062Z" style="fill:white;fill-rule:nonzero;"/>
                    <path d="M-446.818,729.672C-431.531,733.174 -419.329,747.117 -418.998,764.155C-418.998,801.323 -418.112,841.041 -448.843,860.081C-488.833,884.857 -561.844,875.096 -576.866,818.863C-576.866,818.863 -583.238,816.053 -587.582,812.176C-595.748,804.886 -600.301,795.79 -599.804,783.838L-597.887,752.787C-597.481,747.846 -596.914,746.322 -595.756,743.613C-591.926,734.648 -584.975,729.312 -573.401,729.061L-518.198,729.061C-510.465,729.225 -509.903,729.56 -503.253,733.109C-503.253,733.109 -498.012,729.245 -489.446,729.061L-452.644,729.061C-450.248,729.112 -449.581,729.153 -446.818,729.672ZM-484.895,759.408C-484.895,776.679 -482.918,797.8 -486.875,803.443C-493.592,813.021 -513.5,812.265 -513.647,796.21L-513.647,759.408L-568.85,759.408L-570.767,790.459L-549.682,790.459C-549.682,800.862 -551.499,811.527 -546.888,820.538C-537.516,838.848 -515.46,841.309 -497.893,841.051C-474.042,840.701 -448.577,828.153 -448.096,800.593L-448.093,759.408L-484.895,759.408Z" style="fill:rgb(23,66,23);"/>
                    <path d="M-323.119,743.69C-349.442,743.69 -370.463,735.192 -386.181,718.197C-401.898,701.201 -409.757,675.325 -409.757,640.567C-409.757,604.532 -403.432,576.93 -390.781,557.762C-378.13,538.594 -360.56,529.011 -338.069,529.011C-327.847,529.011 -319.541,530.672 -313.151,533.994C-306.762,537.317 -301.395,542.172 -297.05,548.562C-291.939,542.684 -284.847,537.956 -275.774,534.378C-266.701,530.8 -257.437,529.011 -247.981,529.011C-230.602,529.011 -217.44,534.378 -208.495,545.111C-199.55,555.845 -195.078,570.413 -195.078,588.814L-195.078,739.856L-246.831,739.856L-246.831,596.865C-246.831,587.408 -248.108,580.444 -250.664,575.972C-253.22,571.499 -257.82,569.263 -264.465,569.263C-269.321,569.263 -273.538,570.732 -277.116,573.672C-280.694,576.611 -283.249,581.019 -284.783,586.897L-309.701,586.897C-312.512,580.508 -315.324,575.972 -318.135,573.288C-320.946,570.605 -324.907,569.263 -330.019,569.263C-341.52,569.263 -349.506,575.333 -353.979,587.472C-358.451,599.612 -360.687,617.31 -360.687,640.567C-360.687,663.057 -356.79,679.158 -348.995,688.87C-341.2,698.582 -329.508,703.438 -313.918,703.438C-302.162,703.438 -293.345,702.415 -287.466,700.371L-287.466,738.323C-296.922,741.901 -308.807,743.69 -323.119,743.69Z" style="fill:white;fill-rule:nonzero;"/>
                    <path d="M-235.381,500.104C-197.262,507.043 -166.148,548.106 -165.982,593.505L-165.982,744.604C-166.115,749.59 -166.454,750.367 -167.051,752.478C-170.048,763.062 -177.242,769.819 -190.526,770.203L-242.279,770.203C-251.872,769.93 -264.653,760.634 -264.653,760.634C-264.653,760.634 -272.969,767.436 -284.148,770.248C-330.885,782.005 -390.263,768.294 -419.538,718.509C-446.058,673.409 -443.498,620.5 -432.274,577.005C-420.794,532.518 -385.78,497.741 -340.158,498.689C-326.528,498.973 -312.4,501.883 -299.351,509.626C-299.351,509.626 -284.419,503.114 -272.691,500.705C-260.738,498.249 -248.118,497.945 -235.381,500.104ZM-237.181,529.781C-259.858,526.49 -283.019,532.716 -297.05,548.562C-318.422,517.596 -368.435,524.822 -390.184,556.871C-412.183,589.287 -414.426,637.863 -406.442,675.923C-400.642,703.569 -380.126,730.842 -352.575,739.483C-330.534,746.395 -307.356,745.672 -287.466,738.323L-287.466,700.371C-319.586,711.199 -364.713,705.565 -360.268,624.167C-358.869,598.534 -353.2,569.644 -330.555,569.267C-322.297,569.13 -314.435,576.594 -310.228,585.721C-310.228,585.721 -284.783,586.897 -284.783,586.897C-279.144,565.886 -247.007,555.46 -246.831,596.865L-246.831,739.856L-195.078,739.856C-195.078,687.549 -192.303,635.593 -195.238,582.914C-196.455,561.07 -209.918,535.351 -234.318,530.284C-235.273,530.098 -236.226,529.931 -237.181,529.781ZM-328.168,607.303C-333.11,627.603 -337.277,651.287 -328.062,671.28C-324.46,678.805 -298.729,670.897 -298.729,670.897C-291.363,669.155 -283.547,670.23 -275.926,674.75L-275.926,616.884L-280.232,617.243L-305.149,617.243C-315.58,616.941 -327.777,605.746 -328.168,607.303Z" style="fill:rgb(23,66,23);"/>
                    <path d="M-79.687,743.69C-94.255,743.69 -108.12,742.668 -121.281,740.623C-134.443,738.579 -144.986,735.895 -152.908,732.573L-152.908,690.787C-143.708,694.62 -133.229,697.687 -121.473,699.987C-109.717,702.288 -98.983,703.438 -89.271,703.438C-71.892,703.438 -59.625,702.096 -52.469,699.412C-45.313,696.729 -41.735,691.554 -41.735,683.886C-41.735,679.031 -43.077,675.069 -45.76,672.002C-48.444,668.936 -52.277,666.316 -57.261,664.144C-62.245,661.971 -70.103,659.096 -80.837,655.518L-97.322,650.151C-118.023,642.995 -133.165,635.136 -142.749,626.575C-152.333,618.013 -157.125,606.065 -157.125,590.731C-157.125,571.819 -149.778,556.804 -135.082,545.687C-120.387,534.569 -98.983,529.011 -70.87,529.011C-59.369,529.011 -47.549,529.905 -35.41,531.694C-23.27,533.483 -13.239,535.655 -5.316,538.211L-5.316,579.614C-13.239,576.291 -22.631,573.735 -33.493,571.946C-44.355,570.157 -54.386,569.263 -63.586,569.263C-77.387,569.263 -88.249,570.732 -96.172,573.672C-104.094,576.611 -108.056,581.914 -108.056,589.581C-108.056,595.459 -105.372,599.931 -100.005,602.998C-94.638,606.065 -84.671,609.899 -70.103,614.499C-65.503,615.777 -59.625,617.694 -52.469,620.249C-37.646,625.361 -25.954,630.6 -17.392,635.967C-8.83,641.334 -2.569,647.787 1.393,655.326C5.354,662.866 7.335,672.386 7.335,683.886C7.335,703.565 -0.269,718.452 -15.475,728.547C-30.682,738.642 -52.086,743.69 -79.687,743.69Z" style="fill:white;fill-rule:nonzero;"/>
                    <path d="M-28.601,502.802C-22.346,503.893 -16.096,505.126 -9.864,506.727C7.351,511.149 23.245,521.959 23.779,542.958L23.779,584.361C23.645,589.528 23.2,590.898 22.308,593.53C18.232,605.565 7.648,612.434 -7.616,609.117C-7.616,609.117 19.152,625.444 29.615,650.978C47.016,693.444 30.922,741.687 -7.361,760.708C-52.012,782.893 -112.238,779.29 -157.73,761.407C-171.373,756.044 -181.571,744.596 -182.003,727.826L-182.003,686.04C-181.674,673.325 -179.122,672.606 -176.277,669.119C-168.972,660.164 -158.329,658.189 -142.659,664.119C-135.398,666.808 -118.358,673.691 -134.586,665.209C-175.812,643.352 -198.521,588.649 -177.453,547.252C-152.899,499.004 -83.607,494.443 -33.397,502.023C-30.998,502.403 -31.001,502.403 -28.601,502.802ZM-33.158,532.034C-83.081,524.496 -143.038,525.764 -155.382,575.699C-161.18,599.154 -150.731,626.716 -118.266,641.804C-111.385,645.002 -104.372,647.686 -97.322,650.151L-80.837,655.518C-62.048,661.81 -35.697,670.983 -42.783,690.344C-48.771,706.703 -75.959,704.532 -97.708,703.165C-115.543,702.043 -133.678,698.407 -151.168,691.497L-152.908,690.787L-152.908,732.573C-119.478,746.365 -82.835,747.319 -49.116,741.191C-17.666,735.475 9.519,712.297 7.126,677.626C4.891,645.262 -33.726,626.345 -75.351,612.81C-91.611,607.409 -114.605,599.175 -106.521,582.231C-97.838,564.031 -65.919,567.747 -42.46,570.649C-30.553,572.122 -18.49,574.415 -6.819,579L-5.316,579.614L-5.316,538.211C-14.521,535.28 -23.837,533.511 -33.158,532.034Z" style="fill:rgb(23,66,23);"/>
                    <path d="M122.341,743.69C96.018,743.69 74.997,735.192 59.279,718.197C43.562,701.201 35.703,675.325 35.703,640.567C35.703,604.532 42.028,576.93 54.679,557.762C67.33,538.594 84.9,529.011 107.391,529.011C117.613,529.011 125.919,530.672 132.309,533.994C138.698,537.317 144.065,542.172 148.41,548.562C153.521,542.684 160.613,537.956 169.686,534.378C178.759,530.8 188.023,529.011 197.479,529.011C214.858,529.011 228.02,534.378 236.965,545.111C245.91,555.845 250.382,570.413 250.382,588.814L250.382,739.856L198.629,739.856L198.629,596.865C198.629,587.408 197.351,580.444 194.796,575.972C192.24,571.499 187.64,569.263 180.995,569.263C176.139,569.263 171.922,570.732 168.344,573.672C164.766,576.611 162.21,581.019 160.677,586.897L135.759,586.897C132.948,580.508 130.136,575.972 127.325,573.288C124.514,570.605 120.552,569.263 115.441,569.263C103.94,569.263 95.954,575.333 91.481,587.472C87.009,599.612 84.773,617.31 84.773,640.567C84.773,663.057 88.67,679.158 96.465,688.87C104.26,698.582 115.952,703.438 131.542,703.438C143.298,703.438 152.115,702.415 157.994,700.371L157.994,738.323C148.537,741.901 136.653,743.69 122.341,743.69Z" style="fill:white;fill-rule:nonzero;"/>
                    <path d="M210.079,500.104C248.198,507.043 279.312,548.105 279.477,593.505L279.477,744.604C279.345,749.59 279.006,750.367 278.409,752.478C275.412,763.062 268.218,769.819 254.934,770.203L203.181,770.203C193.565,769.93 180.807,760.634 180.807,760.634C180.807,760.634 172.494,767.436 161.31,770.249C114.542,782.01 55.19,768.264 25.926,718.515C-0.625,673.38 1.962,620.499 13.186,577.005C24.646,532.594 59.681,497.741 105.302,498.689C118.932,498.973 133.06,501.883 146.109,509.626C146.109,509.626 161.041,503.114 172.769,500.705C184.722,498.25 197.342,497.945 210.079,500.104ZM208.279,529.781C185.602,526.49 162.441,532.716 148.41,548.562C127.038,517.596 77.025,524.822 55.276,556.871C33.277,589.287 31.034,637.863 39.018,675.923C44.818,703.569 65.334,730.842 92.885,739.483C114.926,746.395 138.104,745.672 157.994,738.323L157.994,700.371C125.874,711.199 80.747,705.565 85.192,624.167C86.591,598.534 92.26,569.644 114.905,569.267C123.163,569.13 131.025,576.594 135.232,585.721C135.232,585.721 160.677,586.897 160.677,586.897C166.316,565.886 198.453,555.46 198.629,596.865L198.629,739.856L250.382,739.856C250.382,687.549 253.157,635.593 250.222,582.914C249.005,561.07 235.542,535.351 211.142,530.284C210.187,530.098 209.234,529.931 208.279,529.781ZM117.292,607.303C112.305,627.79 107.46,652.654 117.559,671.607C127.002,676.668 146.728,670.898 146.728,670.898C154.093,669.155 161.898,670.222 169.534,674.749L169.534,616.884L165.229,617.243L140.311,617.244C129.854,616.94 117.683,605.747 117.292,607.303Z" style="fill:rgb(23,66,23);"/>
                    <path d="M157.227,470.357L127.325,470.357L127.325,435.088L192.112,435.088L192.112,469.207L274.151,469.207L272.234,504.476L157.227,504.476L157.227,470.357Z" style="fill:white;fill-rule:nonzero;"/>
                    <path d="M193.986,405.484C199.244,406.812 200.938,407.767 203.946,409.638C213.856,415.8 220.334,425.284 221.179,438.503C221.179,438.503 270.884,438.891 270.884,438.891C276.174,439.261 277.969,439.921 281.184,441.271C294.173,446.724 303.66,461.417 303.201,475.608L301.284,510.876C300.963,515.086 300.599,516.197 299.867,518.365C296.51,528.313 289.17,534.534 276.785,534.822L161.778,534.822C144.944,534.429 128.52,517.847 128.147,500.449C128.147,500.449 98.77,490.796 98.23,465.61L98.23,430.341C98.335,425.477 98.751,424.074 99.61,421.444C102.902,411.367 110.287,405.034 122.774,404.742L187.561,404.742C190.203,404.804 190.942,404.854 193.986,405.484ZM127.325,435.088L127.325,470.357L157.227,470.357L157.227,504.476L272.234,504.476L274.151,469.207L192.112,469.207L192.112,435.088L127.325,435.088Z" style="fill:rgb(23,66,23);"/>
                    <path d="M367.689,743.69C345.455,743.69 327.948,736.917 315.17,723.372C302.391,709.827 296.002,691.17 296.002,667.402L296.002,532.844L347.755,532.844L347.755,664.335C347.755,678.136 350.822,688.103 356.955,694.237C363.089,700.371 372.417,703.438 384.94,703.438C394.397,703.438 403.789,701.393 413.117,697.304C422.445,693.215 429.921,688.103 435.543,681.97L435.543,532.844L487.297,532.844L487.297,739.856L439.76,739.856L437.46,719.539C417.526,735.64 394.269,743.69 367.689,743.69Z" style="fill:white;fill-rule:nonzero;"/>
                    <path d="M489.009,503.203C494.103,504.486 495.494,505.27 498.166,506.815C508.956,513.053 516.015,523.158 516.392,537.591L516.392,744.604C516.259,749.59 515.921,750.367 515.323,752.478C512.327,763.062 505.132,769.819 491.848,770.203L444.312,770.203C435.481,769.945 427.054,763.13 423.278,764.652C378.49,782.12 316.694,778.962 284.161,727.526C271.726,707.865 266.997,684.587 266.907,662.718L266.907,528.097C267.047,522.819 267.512,521.421 268.441,518.742C271.85,508.919 278.658,502.867 291.45,502.498L343.203,502.498C348.945,502.661 350.763,503.312 354.13,504.64C367.076,509.747 376.431,521.554 376.85,537.591C376.85,581.837 376.075,625.964 376.863,670.331C376.89,671.396 376.989,672.957 376.989,672.957C387.748,673.899 397.729,670.326 406.317,664.851C406.317,664.851 406.448,528.097 406.448,528.097C406.448,528.097 409.737,503.111 430.992,502.498L482.745,502.498C483.842,502.529 484.984,502.414 489.009,503.203ZM435.543,532.844L435.543,681.97C411.636,707.65 359.206,716.264 349.644,680.734C348.176,675.282 347.774,669.744 347.755,664.335L347.755,532.844L296.002,532.844C296.002,578.067 295.816,623.259 296.006,668.513C296.338,694.592 306.521,723.673 333.084,736.527C371.005,754.877 411.946,739.932 437.46,719.539L439.76,739.856L487.297,739.856L487.297,532.844L435.543,532.844Z" style="fill:rgb(23,66,23);"/>
                    <path d="M611.887,743.69C585.564,743.69 564.543,735.192 548.825,718.197C533.108,701.201 525.249,675.325 525.249,640.567C525.249,604.532 531.574,576.93 544.225,557.762C556.876,538.594 574.446,529.011 596.936,529.011C607.159,529.011 615.465,530.672 621.855,533.994C628.244,537.317 633.611,542.172 637.956,548.562C643.067,542.684 650.159,537.956 659.232,534.378C668.305,530.8 677.569,529.011 687.025,529.011C704.404,529.011 717.566,534.378 726.511,545.111C735.456,555.845 739.928,570.413 739.928,588.814L739.928,739.856L688.175,739.856L688.175,596.865C688.175,587.408 686.897,580.444 684.342,575.972C681.786,571.499 677.186,569.263 670.541,569.263C665.685,569.263 661.468,570.732 657.89,573.672C654.312,576.611 651.756,581.019 650.223,586.897L625.305,586.897C622.494,580.508 619.682,575.972 616.871,573.288C614.06,570.605 610.098,569.263 604.987,569.263C593.486,569.263 585.5,575.333 581.027,587.472C576.555,599.612 574.318,617.31 574.318,640.567C574.318,663.057 578.216,679.158 586.011,688.87C593.806,698.582 605.498,703.438 621.088,703.438C632.844,703.438 641.661,702.415 647.539,700.371L647.539,738.323C638.083,741.901 626.199,743.69 611.887,743.69Z" style="fill:white;fill-rule:nonzero;"/>
                    <path d="M699.625,500.104C737.753,507.044 768.84,548.092 769.023,593.499L769.023,744.604C768.884,749.882 768.419,751.279 767.489,753.959C764.086,763.765 757.272,769.834 744.48,770.203L692.727,770.203C683.134,769.93 670.353,760.634 670.353,760.634C670.353,760.634 662.038,767.437 650.857,770.249C604.119,782.004 544.762,768.325 515.468,718.509C488.961,673.432 491.509,620.497 502.732,577.005C514.321,532.093 550.027,497.265 596.077,498.722C609.316,499.14 622.948,502.088 635.655,509.626C635.655,509.626 651.192,502.846 663.475,500.474C675.087,498.231 687.327,498.019 699.625,500.104ZM697.825,529.781C675.148,526.49 651.987,532.716 637.956,548.562C616.584,517.596 566.57,524.822 544.822,556.871C522.823,589.287 520.58,637.863 528.564,675.923C534.364,703.569 554.88,730.842 582.431,739.483C604.472,746.395 627.65,745.672 647.539,738.323L647.539,700.371C615.42,711.199 570.293,705.565 574.738,624.167C576.137,598.534 581.806,569.644 604.45,569.267C612.709,569.13 620.571,576.594 624.778,585.721L650.223,586.897C655.862,565.886 687.999,555.46 688.175,596.865L688.175,739.856L739.928,739.856C739.928,687.549 742.702,635.593 739.768,582.914C738.551,561.07 725.088,535.351 700.688,530.284C699.733,530.098 698.78,529.931 697.825,529.781ZM606.836,607.31C601.881,627.617 597.859,651.589 606.944,671.281C610.519,678.757 636.284,670.896 636.284,670.896C643.649,669.155 651.487,670.245 659.08,674.75L659.08,616.884L654.775,617.243L629.856,617.243C619.422,616.941 607.231,605.739 606.836,607.31Z" style="fill:rgb(23,66,23);"/>
                    <path d="M715.394,514.826C702.359,514.826 691.37,510.673 682.425,502.367C673.48,494.061 669.007,483.519 669.007,470.74C669.007,457.962 673.48,447.356 682.425,438.922C691.37,430.488 702.359,426.271 715.394,426.271C728.428,426.271 739.353,430.488 748.17,438.922C756.988,447.356 761.396,457.962 761.396,470.74C761.396,483.519 756.988,494.061 748.17,502.367C739.353,510.673 728.428,514.826 715.394,514.826ZM715.394,487.608C719.994,487.608 723.955,485.883 727.278,482.433C730.6,478.983 732.261,475.085 732.261,470.74C732.261,466.14 730.6,462.115 727.278,458.665C723.955,455.214 719.994,453.489 715.394,453.489C710.793,453.489 706.768,455.214 703.318,458.665C699.868,462.115 698.142,466.14 698.142,470.74C698.142,475.085 699.868,478.983 703.318,482.433C706.768,485.883 710.793,487.608 715.394,487.608ZM858.769,612.582C858.769,597.759 855.894,586.833 850.143,579.805C844.393,572.777 833.851,569.263 818.516,569.263C810.338,569.263 801.521,570.157 792.065,571.946C782.609,573.735 774.047,576.163 766.38,579.23L766.38,541.278C774.303,537.7 783.887,534.761 795.132,532.461C806.377,530.161 817.494,529.011 828.484,529.011C857.363,529.011 878.256,535.144 891.162,547.412C904.069,559.679 910.522,578.975 910.522,605.298L910.522,739.856L858.769,739.856L858.769,612.582Z" style="fill:white;fill-rule:nonzero;"/>
                    <path d="M725.137,397.15C767.901,404.935 802.398,458.289 785.734,502.203C785.734,502.203 823.107,496.791 848.935,500.207C884.452,504.905 923.317,530.118 934.668,570.656C938.315,583.682 939.565,596.918 939.617,609.985L939.617,744.604C939.448,750.235 939.015,751.103 938.254,753.448C934.994,763.497 928.411,769.768 915.073,770.203L863.32,770.203C849.919,769.768 848.853,766.939 844.268,763.476C835.368,756.753 830.074,748.524 829.674,735.109C829.674,692.353 829.928,649.637 829.667,606.838C829.438,594.515 823.972,599.53 820.087,599.66C806.652,600.107 793.586,602.756 781.477,607.36C781.477,607.36 738.324,609.837 737.285,574.483L737.285,543.324C736.415,543.522 735.536,543.693 734.656,543.861C692.938,551.337 639.345,516.702 639.917,465.053C640.404,421.126 680.158,389.503 725.137,397.15ZM852.093,530.632C822.631,526.326 793.365,529.783 767.885,540.615L766.38,541.278L766.38,579.23C767.348,578.847 768.32,578.474 769.297,578.11C802.05,566.168 847.68,559.328 856.612,593.271C858.305,599.702 858.73,606.207 858.769,612.582L858.769,739.856L910.522,739.856C910.522,687.773 917.837,635.864 908.816,583.712C905.59,565.067 893.995,545.545 875.878,537.317C868.035,533.755 862.564,532.262 852.093,530.632ZM723.644,426.876C689.004,421.802 655.525,457.555 673.99,491.61C690.524,522.104 743.618,521.576 757.88,488.724C767.57,466.402 754.106,432.748 725.334,427.164C724.77,427.061 724.208,426.966 723.644,426.876ZM718.724,453.813C731.774,456.62 736.248,478.672 722.912,485.784C710.573,492.364 690.896,471.614 702.999,458.99C706.909,454.912 712.648,452.67 718.724,453.813ZM712.982,457.489C699.793,461.202 704.977,480.868 717.639,483.59L726.877,478.468C728.91,470.03 722.541,459.464 713.096,457.499C713.033,457.486 713.033,457.476 712.982,457.489Z" style="fill:rgb(23,66,23);"/>
                    <path d="M1025.91,743.69C1011.35,743.69 997.48,742.668 984.318,740.623C971.156,738.579 960.614,735.895 952.691,732.573L952.691,690.787C961.892,694.62 972.37,697.687 984.126,699.987C995.882,702.288 1006.62,703.438 1016.33,703.438C1033.71,703.438 1045.97,702.096 1053.13,699.412C1060.29,696.729 1063.86,691.554 1063.86,683.886C1063.86,679.031 1062.52,675.069 1059.84,672.002C1057.16,668.936 1053.32,666.316 1048.34,664.144C1043.36,661.971 1035.5,659.096 1024.76,655.518L1008.28,650.151C987.576,642.995 972.434,635.136 962.85,626.575C953.266,618.013 948.474,606.065 948.474,590.731C948.474,571.819 955.822,556.804 970.517,545.687C985.212,534.569 1006.62,529.011 1034.73,529.011C1046.23,529.011 1058.05,529.905 1070.19,531.694C1082.33,533.483 1092.36,535.655 1100.28,538.211L1100.28,579.614C1092.36,576.291 1082.97,573.735 1072.11,571.946C1061.25,570.157 1051.21,569.263 1042.01,569.263C1028.21,569.263 1017.35,570.732 1009.43,573.672C1001.5,576.611 997.544,581.914 997.544,589.581C997.544,595.459 1000.23,599.931 1005.59,602.998C1010.96,606.065 1020.93,609.899 1035.5,614.499C1040.1,615.777 1045.97,617.694 1053.13,620.249C1067.95,625.361 1079.65,630.6 1088.21,635.967C1096.77,641.334 1103.03,647.787 1106.99,655.326C1110.95,662.866 1112.93,672.386 1112.93,683.886C1112.93,703.565 1105.33,718.452 1090.12,728.547C1074.92,738.642 1053.51,743.69 1025.91,743.69Z" style="fill:white;fill-rule:nonzero;"/>
                    <path d="M1077,502.802C1083.25,503.893 1089.5,505.126 1095.74,506.727C1112.89,511.133 1128.84,521.96 1129.38,542.958L1129.38,584.361C1129.24,589.528 1128.8,590.898 1127.91,593.53C1123.83,605.565 1113.25,612.434 1097.98,609.117C1097.98,609.117 1126.54,627.251 1136.29,653.748C1151.62,695.391 1136.17,741.299 1099.29,760.179C1054.69,783.008 993.348,779.283 947.87,761.408C934.22,756.042 924.028,744.595 923.596,727.826L923.596,686.04C923.748,680.191 924.353,678.522 925.589,675.463C930.999,662.073 944.243,657.043 962.941,664.119C970.193,666.805 987.248,673.697 971.012,665.208C930.679,643.825 906.666,589.478 928.144,547.256C952.691,499 1021.99,494.443 1072.2,502.023C1074.6,502.403 1074.6,502.403 1077,502.802ZM1072.44,532.034C1022.52,524.496 962.561,525.764 950.218,575.699C944.42,599.154 954.869,626.716 987.334,641.804C994.214,645.002 1001.23,647.686 1008.28,650.151L1024.76,655.518C1043.55,661.81 1069.9,670.983 1062.82,690.344C1056.83,706.703 1029.64,704.532 1007.89,703.165C990.056,702.043 971.922,698.407 954.431,691.497L952.691,690.787L952.691,732.573C986.121,746.365 1022.76,747.319 1056.48,741.191C1087.93,735.475 1115.12,712.297 1112.73,677.626C1110.49,645.262 1071.87,626.345 1030.25,612.81C1013.99,607.409 990.995,599.175 999.079,582.231C1007.76,564.031 1039.68,567.747 1063.14,570.649C1075.05,572.122 1087.11,574.415 1098.78,579L1100.28,579.614L1100.28,538.211C1091.08,535.28 1081.76,533.511 1072.44,532.034Z" style="fill:rgb(23,66,23);"/>
                    <path d="M1006.74,443.522L1048.91,443.522L1048.91,469.207L1144.37,469.207L1142.45,504.476L1006.74,504.476L1006.74,443.522Z" style="fill:white;fill-rule:nonzero;"/>
                    <path d="M1050.63,413.881C1055.25,415.018 1056.62,415.736 1059.2,417.162C1067.46,421.724 1073.31,428.199 1076.61,438.861L1139.82,438.861C1157.19,439.249 1174.05,456.657 1173.42,475.607L1171.5,510.876C1171.15,515.496 1170.69,516.811 1169.76,519.28C1166.15,528.788 1159,534.552 1147,534.822L1011.3,534.822C1006.2,534.706 1004.45,534.162 1001.29,533.028C988.13,528.294 977.949,514.056 977.649,499.728L977.649,438.775C977.748,434.058 978.139,432.695 978.948,430.133C982.179,419.893 989.807,413.457 1002.19,413.176L1044.36,413.176C1046.94,413.235 1047.66,413.282 1050.63,413.881ZM1006.74,443.522L1006.74,504.476L1142.45,504.476L1144.37,469.207L1048.91,469.207L1048.91,443.522L1006.74,443.522Z" style="fill:rgb(23,66,23);"/>
                    <path d="M1247.49,743.69C1216.31,743.69 1192.1,736.342 1174.85,721.647C1157.6,706.952 1148.97,685.292 1148.97,656.668L1148.97,532.844L1200.72,532.844L1200.72,657.435C1200.72,673.025 1204.62,684.589 1212.41,692.129C1220.21,699.668 1231.9,703.438 1247.49,703.438C1263.08,703.438 1274.77,699.668 1282.57,692.129C1290.36,684.589 1294.26,673.025 1294.26,657.435L1294.26,532.844L1346.02,532.844L1346.02,656.668C1346.02,685.292 1337.39,706.952 1320.14,721.647C1302.89,736.342 1278.67,743.69 1247.49,743.69Z" style="fill:white;fill-rule:nonzero;"/>
                    <path d="M1347.73,503.203C1352.82,504.486 1354.21,505.27 1356.88,506.815C1367.67,513.053 1374.73,523.158 1375.11,537.591L1375.11,661.488C1374.97,690.875 1366.63,718.968 1348.67,738.521C1322.05,767.501 1278.54,776.445 1237.35,773.531C1200.1,770.896 1157.83,754.428 1135.84,716.597C1124.27,696.676 1119.98,673.721 1119.87,651.993L1119.87,528.097C1120.01,523.111 1120.35,522.333 1120.94,520.223C1123.94,509.621 1131.13,502.881 1144.42,502.498L1196.17,502.498C1201.91,502.661 1203.73,503.312 1207.1,504.64C1220.04,509.747 1229.4,521.554 1229.82,537.591C1229.82,579.439 1229.32,621.21 1229.83,663.137C1229.89,666.445 1225.88,671.279 1235.83,672.652C1250.54,674.684 1264.94,671.63 1265.16,653.171C1265.16,653.171 1265.17,528.097 1265.17,528.097C1265.17,528.097 1265.45,521.636 1267.25,517.302C1271.01,508.226 1277.38,502.854 1289.71,502.498L1341.46,502.498C1346.27,502.634 1346.31,502.924 1347.73,503.203ZM1294.26,532.844C1294.26,574.858 1294.75,616.955 1294.25,658.885C1293.71,685.9 1274.5,705.368 1241.83,703.261C1230.49,702.53 1217.58,699.349 1209.36,688.709C1202.28,679.545 1200.76,667.759 1200.72,657.435L1200.72,532.844L1148.97,532.844C1148.97,577.18 1146.2,621.537 1149.28,665.81C1150.78,687.323 1159.28,709.962 1178.16,724.316C1201.62,742.148 1230.86,744.659 1256.08,743.496C1301.66,741.394 1345.74,713.942 1346.02,656.668L1346.02,532.844L1294.26,532.844Z" style="fill:rgb(23,66,23);"/>
                    <path d="M1469.45,743.69C1453.35,743.69 1437.83,742.22 1422.88,739.281C1407.93,736.342 1394.96,732.445 1383.97,727.589L1383.97,618.716L1471.76,618.716L1474.06,656.668L1433.04,656.668L1433.04,698.454C1437.64,699.987 1443.39,701.201 1450.29,702.096C1457.19,702.99 1463.7,703.438 1469.84,703.438C1483.89,703.438 1495.01,701.265 1503.19,696.921C1511.37,692.576 1517.31,685.612 1521.02,676.028C1524.72,666.444 1526.58,653.474 1526.58,637.117C1526.58,619.483 1524.34,605.81 1519.87,596.098C1515.39,586.386 1508.17,579.486 1498.21,575.397C1488.24,571.307 1474.44,569.263 1456.8,569.263C1432.27,569.263 1408.88,572.713 1386.65,579.614L1386.65,540.895C1397.89,537.061 1410.93,534.122 1425.75,532.077C1440.58,530.033 1455.14,529.011 1469.45,529.011C1506,529.011 1532.84,538.083 1549.96,556.229C1567.08,574.374 1575.64,601.337 1575.64,637.117C1575.64,672.13 1567.08,698.646 1549.96,716.663C1532.84,734.681 1506,743.69 1469.45,743.69Z" style="fill:white;fill-rule:nonzero;"/>
                    <path d="M1499.77,501.493C1531.34,507.192 1563.2,523.77 1582.47,553.96C1624.22,619.371 1610.38,711.17 1561.81,749.043C1514.62,785.844 1439.75,782.023 1378.97,756.406C1365.54,750.745 1355.3,739.532 1354.87,722.842L1354.87,613.969C1355.12,604.206 1363.46,593.933 1363.46,593.933C1363.46,593.933 1357.84,585.566 1357.56,574.866L1357.56,536.147C1357.69,530.974 1358.14,529.603 1359.03,526.968C1365.82,506.94 1393.74,505.163 1419.08,501.774C1444.21,498.413 1470.08,497.033 1496.25,500.915C1498.02,501.195 1498.01,501.195 1499.77,501.493ZM1496.52,530.931C1459.52,525.442 1422.55,529.363 1388.78,540.186L1386.65,540.895L1386.65,579.614C1388.04,579.186 1389.43,578.768 1390.83,578.36C1422.19,569.377 1456.73,564.636 1488.89,572.432C1498.42,574.742 1508.25,579.312 1514.87,587.817C1529.32,606.39 1527.51,631.109 1526.14,650.114C1524.31,675.386 1511.4,698.085 1486.6,702.19C1469.37,705.042 1450.76,704.195 1433.04,698.454L1433.04,656.668L1474.06,656.668L1471.76,618.716L1383.97,618.716L1383.97,727.589C1418.22,742.547 1455.44,746.184 1488.99,742.74C1541.72,737.326 1580.25,693.302 1575.14,622.545C1574.92,619.506 1574.62,616.461 1574.23,613.412C1571.21,589.59 1561.98,563.888 1540.75,548.03C1527.41,538.07 1511.73,533.347 1496.52,530.931Z" style="fill:rgb(23,66,23);"/>
                    <path d="M1521.98,792.376L1498.97,792.376L1500.89,759.408L1565.68,759.408L1565.68,836.846L1521.98,836.846L1521.98,792.376Z" style="fill:white;fill-rule:nonzero;"/>
                    <path d="M1566.91,729.663C1581.99,733.041 1594.52,748.271 1594.77,764.155L1594.77,841.593C1594.54,855.94 1584.12,866.95 1570.23,867.192L1526.53,867.192C1509.68,866.897 1493.17,850.293 1492.88,832.098C1492.88,832.098 1491.12,819.957 1491.12,819.957C1478.3,813.925 1469.35,799.757 1469.93,785.862L1471.85,752.894C1472.86,739.335 1482.98,729.295 1496.34,729.062L1561.13,729.061C1563.7,729.106 1564.05,729.121 1566.91,729.663ZM1500.89,759.408L1498.97,792.376L1521.98,792.376L1521.98,836.846L1565.68,836.846L1565.68,759.408L1500.89,759.408Z" style="fill:rgb(23,66,23);"/>
                    <path d="M1710.2,743.69C1679.02,743.69 1654.81,736.342 1637.56,721.647C1620.31,706.952 1611.68,685.292 1611.68,656.668L1611.68,532.844L1663.43,532.844L1663.43,657.435C1663.43,673.025 1667.33,684.589 1675.13,692.129C1682.92,699.668 1694.61,703.438 1710.2,703.438C1725.79,703.438 1737.49,699.668 1745.28,692.129C1753.08,684.589 1756.97,673.025 1756.97,657.435L1756.97,532.844L1808.73,532.844L1808.73,656.668C1808.73,685.292 1800.1,706.952 1782.85,721.647C1765.6,736.342 1741.38,743.69 1710.2,743.69Z" style="fill:white;fill-rule:nonzero;"/>
                    <path d="M1810.44,503.203C1815.53,504.486 1816.92,505.27 1819.6,506.815C1830.38,513.053 1837.44,523.158 1837.82,537.591L1837.82,661.488C1837.68,690.875 1829.34,718.967 1811.38,738.518C1784.77,767.503 1741.24,776.443 1700.06,773.531C1662.82,770.897 1620.54,754.427 1598.56,716.598C1586.97,696.659 1582.69,673.758 1582.59,651.993L1582.59,528.097C1582.73,522.819 1583.19,521.421 1584.12,518.741C1587.53,508.919 1594.34,502.867 1607.13,502.498L1658.88,502.498C1664.62,502.661 1666.44,503.312 1669.81,504.64C1682.75,509.747 1692.11,521.554 1692.53,537.591C1692.53,579.439 1692.03,621.209 1692.54,663.137C1692.6,666.46 1692.21,671.15 1694.78,671.895C1710.54,676.26 1727.8,672.728 1727.88,652.629L1727.88,528.097C1728.02,522.819 1728.48,521.421 1729.41,518.742C1732.82,508.919 1739.63,502.867 1752.42,502.498L1804.17,502.498C1805.27,502.529 1806.41,502.414 1810.44,503.203ZM1756.97,532.844C1756.97,574.858 1757.46,616.955 1756.96,658.885C1756.42,685.9 1737.21,705.368 1704.54,703.261C1693.2,702.53 1680.29,699.349 1672.07,688.709C1664.99,679.545 1663.47,667.759 1663.43,657.435L1663.43,532.844L1611.68,532.844C1611.68,577.18 1608.91,621.537 1611.99,665.81C1613.49,687.323 1621.99,709.962 1640.87,724.316C1664.33,742.148 1693.57,744.659 1718.79,743.496C1764.38,741.394 1808.45,713.942 1808.73,656.668L1808.73,532.844L1756.97,532.844Z" style="fill:rgb(23,66,23);"/>
                    <path d="M1919.9,743.69C1898.43,743.69 1881.05,738.451 1867.76,727.972C1854.47,717.494 1847.83,701.01 1847.83,678.519C1847.83,657.818 1854.86,641.909 1868.91,630.792C1882.97,619.674 1903.16,614.116 1929.48,614.116L1988.14,614.116L1988.14,604.148C1988.14,591.37 1984.56,582.361 1977.4,577.122C1970.25,571.883 1957.6,569.263 1939.45,569.263C1915.43,569.263 1892.55,572.713 1870.83,579.614L1870.83,540.895C1881.82,537.317 1894.21,534.441 1908.02,532.269C1921.82,530.097 1935.11,529.011 1947.88,529.011C1978.81,529.011 2001.87,535.591 2017.08,548.753C2032.29,561.915 2039.89,582.169 2039.89,609.515L2039.89,739.856L1988.14,739.856L1988.14,652.068L1932.55,652.068C1920.79,652.068 1911.91,654.112 1905.91,658.202C1899.9,662.291 1896.9,669.063 1896.9,678.519C1896.9,687.976 1899.64,694.493 1905.14,698.071C1910.63,701.649 1920.15,703.438 1933.7,703.438C1945.46,703.438 1954.27,702.415 1960.15,700.371L1960.15,738.323C1948.65,741.901 1935.23,743.69 1919.9,743.69Z" style="fill:white;fill-rule:nonzero;"/>
                    <path d="M1977.39,501.438C2006.18,506.685 2035.64,521.738 2052.4,548.966C2064.67,568.906 2068.89,592.15 2068.98,614.193L2068.98,744.604C2068.85,749.882 2068.38,751.279 2067.45,753.959C2064.04,763.781 2057.23,769.834 2044.44,770.203L1992.69,770.203C1987.56,770.057 1984.38,769.768 1977.27,765.885C1977.27,765.885 1949.93,773.521 1929.32,773.982C1891.3,774.834 1846.08,762.806 1826.75,716.859C1808.75,674.072 1820.26,624.704 1854.45,601.711C1854.45,601.711 1842.08,588.124 1841.73,574.866L1841.73,536.147C1841.86,531.211 1842.2,530.44 1842.78,528.348C1848.01,509.664 1873.03,506.696 1895.21,502.92C1902.11,501.746 1909.07,500.782 1916.09,500.071C1935.19,498.139 1954.75,497.924 1974.43,500.943C1975.91,501.184 1975.91,501.183 1977.39,501.438ZM1974.57,530.939C1939.15,525.503 1904.26,530.332 1871.86,540.561C1871.86,540.561 1870.83,579.614 1870.83,579.614C1900.55,570.255 1932.55,563.448 1965.41,571.89C1978.46,575.24 1988.07,589.437 1988.14,604.148L1988.14,614.116C1938.52,614.116 1880.93,602.166 1855.66,646.013C1840.63,672.077 1844.46,715.39 1875.67,733.314C1902.42,748.681 1933.8,746.352 1960.15,738.323L1960.15,700.371C1940.08,707.136 1910.99,706.884 1901.34,694.597C1891.21,681.694 1897.02,660.121 1913.12,654.709C1919.22,652.657 1925.89,652.104 1932.55,652.068L1988.14,652.068L1988.14,739.856L2039.89,739.856C2039.89,695.984 2040.08,652.142 2039.88,608.239C2039.81,602.709 2039.73,602.245 2039.53,599.593C2037.79,576.075 2025.27,549.861 2001.46,538.771C1992.74,534.71 1983.62,532.411 1974.57,530.939Z" style="fill:rgb(23,66,23);"/>
                </g>
            </g>
        </g>
    </g>
</svg>
