<?xml version="1.0" encoding="UTF-8" standalone="no"?><!DOCTYPE svg PUBLIC "-//W3C//DTD SVG 1.1//EN" "http://www.w3.org/Graphics/SVG/1.1/DTD/svg11.dtd"><svg width="100%" height="100%" viewBox="0 0 83 51" version="1.1" xmlns="http://www.w3.org/2000/svg" xmlns:xlink="http://www.w3.org/1999/xlink" xml:space="preserve" xmlns:serif="http://www.serif.com/" style="fill-rule:evenodd;clip-rule:evenodd;stroke-linejoin:round;stroke-miterlimit:1.41421;"><path id="microwave" d="M77.645,50.046l-72.653,0c-2.736,0 -4.957,-2.221 -4.957,-4.957l0,-39.661c0,-2.736 2.221,-4.957 4.957,-4.957l72.653,0c2.736,0 4.957,2.221 4.957,4.957l0,39.661c0,2.736 -2.221,4.957 -4.957,4.957Zm-21.201,-46.187l-52.885,0l0,42.866l52.885,0l0,-42.866Zm9.675,34.267c1.468,0 2.66,1.192 2.66,2.66c0,1.469 -1.192,2.661 -2.66,2.661c-1.469,0 -2.661,-1.192 -2.661,-2.661c0,-1.468 1.192,-2.66 2.661,-2.66Zm6.646,0c1.469,0 2.661,1.192 2.661,2.66c0,1.469 -1.192,2.661 -2.661,2.661c-1.468,0 -2.66,-1.192 -2.66,-2.661c0,-1.468 1.192,-2.66 2.66,-2.66Zm-3.323,-17.746c2.937,0 5.321,2.385 5.321,5.322c0,2.936 -2.384,5.321 -5.321,5.321c-2.937,0 -5.321,-2.385 -5.321,-5.321c0,-2.937 2.384,-5.322 5.321,-5.322Zm0,-12.835c2.937,0 5.321,2.384 5.321,5.321c0,2.937 -2.384,5.321 -5.321,5.321c-2.937,0 -5.321,-2.384 -5.321,-5.321c0,-2.937 2.384,-5.321 5.321,-5.321Z" style="fill:#ececec;"/></svg>